<?xml version="1.0" encoding="UTF-8" standalone="no"?>
<!DOCTYPE svg PUBLIC "-//W3C//DTD SVG 1.0//EN" "http://www.w3.org/TR/2001/PR-SVG-20010719/DTD/svg10.dtd">
<svg width="41cm" height="69cm" viewBox="-402 -482 803 1363" xmlns="http://www.w3.org/2000/svg" xmlns:xlink="http://www.w3.org/1999/xlink">
  <g>
    <g>
      <rect style="fill: #ffffff" x="-400" y="-480" width="800" height="780"/>
      <rect style="fill: none; fill-opacity:0; stroke-width: 2; stroke: #333333" x="-400" y="-480" width="800" height="780"/>
      <text font-size="12.8" style="fill: #333333;text-anchor:middle;font-family:sans-serif;font-style:normal;font-weight:normal" x="0" y="-86.1">
        <tspan x="0" y="-86.1"></tspan>
      </text>
    </g>
    <text font-size="12.8" style="fill: #333333;text-anchor:start;font-family:sans-serif;font-style:normal;font-weight:normal" x="-210" y="-276">
      <tspan x="-210" y="-276"></tspan>
    </text>
    <text font-size="12.8" style="fill: #333333;text-anchor:start;font-family:sans-serif;font-style:normal;font-weight:normal" x="-210" y="-276">
      <tspan x="-210" y="-276"></tspan>
    </text>
    <text font-size="12.8" style="fill: #333333;text-anchor:start;font-family:sans-serif;font-style:normal;font-weight:normal" x="-380" y="-440">
      <tspan x="-380" y="-440">Kubernetes Cluster</tspan>
    </text>
  </g>
  <g>
    <g>
      <g>
        <rect style="fill: #f3f3f3" x="-340" y="-400" width="260" height="248"/>
        <rect style="fill: none; fill-opacity:0; stroke-width: 2; stroke: #333333" x="-340" y="-400" width="260" height="248"/>
        <text font-size="12.8" style="fill: #333333;text-anchor:middle;font-family:sans-serif;font-style:normal;font-weight:normal" x="-210" y="-272.1">
          <tspan x="-210" y="-272.1"></tspan>
        </text>
      </g>
      <text font-size="12.8" style="fill: #333333;text-anchor:start;font-family:sans-serif;font-style:normal;font-weight:normal" x="-320" y="-360">
        <tspan x="-320" y="-360">Deployment</tspan>
      </text>
    </g>
    <g>
      <rect style="fill: #ffffff" x="-300" y="-320" width="180" height="60"/>
      <rect style="fill: none; fill-opacity:0; stroke-width: 2; stroke: #333333" x="-300" y="-320" width="180" height="60"/>
      <text font-size="12.8" style="fill: #333333;text-anchor:middle;font-family:sans-serif;font-style:normal;font-weight:normal" x="-210" y="-286.1">
        <tspan x="-210" y="-286.1">Pod</tspan>
      </text>
    </g>
    <g>
      <rect style="fill: #ffffff" x="-300" y="-240" width="180" height="60"/>
      <rect style="fill: none; fill-opacity:0; stroke-width: 2; stroke: #333333" x="-300" y="-240" width="180" height="60"/>
      <text font-size="12.8" style="fill: #333333;text-anchor:middle;font-family:sans-serif;font-style:normal;font-weight:normal" x="-210" y="-206.1">
        <tspan x="-210" y="-206.1">Pod</tspan>
      </text>
    </g>
  </g>
  <g>
    <rect style="fill: #f3f3f3" x="-80" y="60" width="160" height="80"/>
    <rect style="fill: none; fill-opacity:0; stroke-width: 2; stroke: #333333" x="-80" y="60" width="160" height="80"/>
    <text font-size="12.8" style="fill: #333333;text-anchor:middle;font-family:sans-serif;font-style:normal;font-weight:normal" x="0" y="103.9">
      <tspan x="0" y="103.9">Service</tspan>
    </text>
  </g>
  <g>
    <rect style="fill: #f3f3f3" x="-100" y="600" width="200" height="80"/>
    <rect style="fill: none; fill-opacity:0; stroke-width: 2; stroke: #333333" x="-100" y="600" width="200" height="80"/>
    <text font-size="12.8" style="fill: #333333;text-anchor:middle;font-family:sans-serif;font-style:normal;font-weight:normal" x="0" y="643.9">
      <tspan x="0" y="643.9">Load Balancer</tspan>
    </text>
  </g>
  <g>
    <polyline style="fill: none; fill-opacity:0; stroke-width: 2; stroke: #333333" points="-100,620 -220,620 -220,458.736 "/>
    <polygon style="fill: #333333" points="-220,451.236 -215,461.236 -220,458.736 -225,461.236 "/>
    <polygon style="fill: none; fill-opacity:0; stroke-width: 2; stroke: #333333" points="-220,451.236 -215,461.236 -220,458.736 -225,461.236 "/>
  </g>
  <g>
    <polyline style="fill: none; fill-opacity:0; stroke-width: 2; stroke: #333333" points="100,620 220,620 220,458.736 "/>
    <polygon style="fill: #333333" points="220,451.236 225,461.236 220,458.736 215,461.236 "/>
    <polygon style="fill: none; fill-opacity:0; stroke-width: 2; stroke: #333333" points="220,451.236 225,461.236 220,458.736 215,461.236 "/>
  </g>
  <g>
    <polyline style="fill: none; fill-opacity:0; stroke-width: 2; stroke: #333333" points="-190,360 -190,120 -89.7361,120 "/>
    <polygon style="fill: #333333" points="-82.2361,120 -92.2361,125 -89.7361,120 -92.2361,115 "/>
    <polygon style="fill: none; fill-opacity:0; stroke-width: 2; stroke: #333333" points="-82.2361,120 -92.2361,125 -89.7361,120 -92.2361,115 "/>
  </g>
  <g>
    <polyline style="fill: none; fill-opacity:0; stroke-width: 2; stroke: #333333" points="190,360 190,120 89.7361,120 "/>
    <polygon style="fill: #333333" points="82.2361,120 92.2361,115 89.7361,120 92.2361,125 "/>
    <polygon style="fill: none; fill-opacity:0; stroke-width: 2; stroke: #333333" points="82.2361,120 92.2361,115 89.7361,120 92.2361,125 "/>
  </g>
  <g>
    <g>
      <rect style="fill: #f3f3f3" x="-320" y="200" width="200" height="200"/>
      <rect style="fill: none; fill-opacity:0; stroke-width: 2; stroke: #333333" x="-320" y="200" width="200" height="200"/>
      <text font-size="12.8" style="fill: #333333;text-anchor:middle;font-family:sans-serif;font-style:normal;font-weight:normal" x="-220" y="303.9">
        <tspan x="-220" y="303.9">Node</tspan>
      </text>
    </g>
    <g>
      <rect style="fill: #a6c0fb" x="-280" y="360" width="120" height="89"/>
      <rect style="fill: none; fill-opacity:0; stroke-width: 2; stroke: #333333" x="-280" y="360" width="120" height="89"/>
      <text font-size="12.8" style="fill: #333333;text-anchor:middle;font-family:sans-serif;font-style:normal;font-weight:normal" x="-220" y="408.4">
        <tspan x="-220" y="408.4">Node Port</tspan>
      </text>
    </g>
  </g>
  <g>
    <g>
      <rect style="fill: #f3f3f3" x="120" y="200" width="200" height="200"/>
      <rect style="fill: none; fill-opacity:0; stroke-width: 2; stroke: #333333" x="120" y="200" width="200" height="200"/>
      <text font-size="12.8" style="fill: #333333;text-anchor:middle;font-family:sans-serif;font-style:normal;font-weight:normal" x="220" y="303.9">
        <tspan x="220" y="303.9">Node</tspan>
      </text>
    </g>
    <g>
      <rect style="fill: #a6c0fb" x="160" y="360" width="120" height="89"/>
      <rect style="fill: none; fill-opacity:0; stroke-width: 2; stroke: #333333" x="160" y="360" width="120" height="89"/>
      <text font-size="12.8" style="fill: #333333;text-anchor:middle;font-family:sans-serif;font-style:normal;font-weight:normal" x="220" y="408.4">
        <tspan x="220" y="408.4">Node Port</tspan>
      </text>
    </g>
  </g>
  <g>
    <rect style="fill: #f3f3f3" x="-100" y="800" width="200" height="80"/>
    <rect style="fill: none; fill-opacity:0; stroke-width: 2; stroke: #333333" x="-100" y="800" width="200" height="80"/>
    <text font-size="12.8" style="fill: #333333;text-anchor:middle;font-family:sans-serif;font-style:normal;font-weight:normal" x="0" y="843.9">
      <tspan x="0" y="843.9">Internet</tspan>
    </text>
  </g>
  <g>
    <line style="fill: none; fill-opacity:0; stroke-width: 2; stroke: #333333" x1="0" y1="800" x2="0" y2="689.736"/>
    <polygon style="fill: #333333" points="0,682.236 5,692.236 0,689.736 -5,692.236 "/>
    <polygon style="fill: none; fill-opacity:0; stroke-width: 2; stroke: #333333" points="0,682.236 5,692.236 0,689.736 -5,692.236 "/>
  </g>
  <text font-size="12.8" style="fill: #333333;text-anchor:start;font-family:sans-serif;font-style:normal;font-weight:normal" x="0" y="640">
    <tspan x="0" y="640"></tspan>
  </text>
  <g>
    <rect style="fill: #f3f3f3" x="160" y="-120" width="200" height="80"/>
    <rect style="fill: none; fill-opacity:0; stroke-width: 2; stroke: #333333" x="160" y="-120" width="200" height="80"/>
    <text font-size="12.8" style="fill: #333333;text-anchor:middle;font-family:sans-serif;font-style:normal;font-weight:normal" x="260" y="-76.1">
      <tspan x="260" y="-76.1">Ingress Controller</tspan>
    </text>
  </g>
  <g>
    <rect style="fill: #f3f3f3" x="160" y="-400" width="200" height="80"/>
    <rect style="fill: none; fill-opacity:0; stroke-width: 2; stroke: #333333" x="160" y="-400" width="200" height="80"/>
    <text font-size="12.8" style="fill: #333333;text-anchor:middle;font-family:sans-serif;font-style:normal;font-weight:normal" x="260" y="-356.1">
      <tspan x="260" y="-356.1">Ingress</tspan>
    </text>
  </g>
  <g>
    <line style="fill: none; fill-opacity:0; stroke-width: 2; stroke: #333333" x1="260" y1="-320" x2="260" y2="-129.736"/>
    <polygon style="fill: #333333" points="260,-122.236 255,-132.236 260,-129.736 265,-132.236 "/>
    <polygon style="fill: none; fill-opacity:0; stroke-width: 2; stroke: #333333" points="260,-122.236 255,-132.236 260,-129.736 265,-132.236 "/>
  </g>
  <text font-size="12.7998" style="fill: #333333;text-anchor:start;font-family:sans-serif;font-style:normal;font-weight:normal" x="100" y="-220">
    <tspan x="100" y="-220">Provides Configuration</tspan>
  </text>
  <g>
    <polyline style="fill: none; fill-opacity:0; stroke-width: 2; stroke: #333333" points="0,60 0,10 260,10 260,-30.2639 "/>
    <polygon style="fill: #333333" points="260,-37.7639 265,-27.7639 260,-30.2639 255,-27.7639 "/>
    <polygon style="fill: none; fill-opacity:0; stroke-width: 2; stroke: #333333" points="260,-37.7639 265,-27.7639 260,-30.2639 255,-27.7639 "/>
  </g>
  <g>
    <rect style="fill: #f3f3f3" x="-80" y="-120" width="160" height="80"/>
    <rect style="fill: none; fill-opacity:0; stroke-width: 2; stroke: #333333" x="-80" y="-120" width="160" height="80"/>
    <text font-size="12.8" style="fill: #333333;text-anchor:middle;font-family:sans-serif;font-style:normal;font-weight:normal" x="0" y="-76.1">
      <tspan x="0" y="-76.1">Service</tspan>
    </text>
  </g>
  <g>
    <line style="fill: none; fill-opacity:0; stroke-width: 2; stroke: #333333" x1="160" y1="-80" x2="89.7361" y2="-80"/>
    <polygon style="fill: #333333" points="82.2361,-80 92.2361,-85 89.7361,-80 92.2361,-75 "/>
    <polygon style="fill: none; fill-opacity:0; stroke-width: 2; stroke: #333333" points="82.2361,-80 92.2361,-85 89.7361,-80 92.2361,-75 "/>
  </g>
  <g>
    <polyline style="fill: none; fill-opacity:0; stroke-width: 2; stroke: #333333" points="-40,-120 -40,-290 -110.264,-290 "/>
    <polygon style="fill: #333333" points="-117.764,-290 -107.764,-295 -110.264,-290 -107.764,-285 "/>
    <polygon style="fill: none; fill-opacity:0; stroke-width: 2; stroke: #333333" points="-117.764,-290 -107.764,-295 -110.264,-290 -107.764,-285 "/>
  </g>
  <g>
    <polyline style="fill: none; fill-opacity:0; stroke-width: 2; stroke: #333333" points="-80,-100 -100,-100 -100,-210 -110.264,-210 "/>
    <polygon style="fill: #333333" points="-117.764,-210 -107.764,-215 -110.264,-210 -107.764,-205 "/>
    <polygon style="fill: none; fill-opacity:0; stroke-width: 2; stroke: #333333" points="-117.764,-210 -107.764,-215 -110.264,-210 -107.764,-205 "/>
  </g>
</svg>
