<svg width="40" height="40" viewBox="0 0 40 40" fill="none" xmlns="http://www.w3.org/2000/svg">
<path d="M31.0103 33.3276V34.3276H10.6324V33.3276H31.0103ZM31.7838 32.5542V8.99264C31.7836 8.56551 31.4375 8.2192 31.0103 8.2192H10.6324C10.2053 8.21937 9.8591 8.56564 9.85895 8.99264V32.5542C9.85904 32.9811 10.2053 33.3274 10.6324 33.3276V34.3276C9.71428 34.3274 8.95876 33.6298 8.86774 32.7358L8.85895 32.5542V8.99264C8.8591 8.01338 9.65299 7.21937 10.6324 7.2192H31.0103C31.9898 7.2192 32.7836 8.01327 32.7838 8.99264V32.5542L32.775 32.7358C32.6839 33.6298 31.9285 34.3276 31.0103 34.3276V33.3276C31.4375 33.3276 31.7837 32.9813 31.7838 32.5542Z" fill="#282F38"/>
<path d="M28.0547 4.2627C29.0339 4.26296 29.8278 5.05704 29.8281 6.03613V7.21973H28.8281V6.03613C28.8278 5.60927 28.4816 5.26296 28.0547 5.2627H7.67676C7.24978 5.26285 6.9036 5.60923 6.90332 6.03613V29.5977C6.90341 30.0247 7.24968 30.3709 7.67676 30.3711H8.85938V31.3711H7.67676C6.75867 31.3709 6.00314 30.6733 5.91211 29.7793L5.90234 29.5977V6.03613C5.90263 5.05697 6.69747 4.26285 7.67676 4.2627H28.0547Z" fill="#282F38"/>
<path d="M32.915 10.1758C33.8946 10.1758 34.6895 10.9697 34.6895 11.9492V34.4893C34.6895 35.4698 33.8946 36.2627 32.915 36.2627H13.4736C12.494 36.2627 11.6992 35.4698 11.6992 34.4893V11.9492C11.6992 10.9697 12.494 10.1758 13.4736 10.1758H32.915ZM17.9473 29.8838H19.8193V24.9561L22.165 22.7686L27.249 29.8838H29.6143L23.4453 21.4873L29.3779 15.8115H26.9541L19.8193 22.8281V15.8115H17.9473V29.8838Z" fill="#282F38"/>
</svg>