<svg id="Option_3" data-name="Option 3" xmlns="http://www.w3.org/2000/svg" xmlns:xlink="http://www.w3.org/1999/xlink" viewBox="0 0 382 130"><defs><style>.cls-1,.cls-17,.cls-2,.cls-5,.cls-8{fill:none;}.cls-1{clip-rule:evenodd;}.cls-3{clip-path:url(#clip-path);}.cls-4{opacity:0.5;}.cls-17,.cls-5,.cls-8{stroke:#009ada;}.cls-19,.cls-20,.cls-5{stroke-linecap:round;stroke-linejoin:round;}.cls-5{stroke-width:2.2px;stroke-dasharray:3.52 6.17;}.cls-6{fill:#0b9ad6;}.cls-7{fill:#009ada;}.cls-17,.cls-8{stroke-miterlimit:10;}.cls-8{stroke-width:1.3px;}.cls-20,.cls-21,.cls-22,.cls-9{fill:#fff;}.cls-10{fill:url(#linear-gradient);}.cls-11{fill:#35ade3;}.cls-12{fill:url(#linear-gradient-2);}.cls-13{fill:url(#linear-gradient-3);}.cls-14{fill:url(#linear-gradient-4);}.cls-15{clip-path:url(#clip-path-2);}.cls-16,.cls-19{fill:#1a2e3e;}.cls-17{stroke-width:0.56px;}.cls-18{fill:#5ab1e3;}.cls-19{stroke:#1a2e3e;stroke-width:0.56px;}.cls-20{stroke:#fff;stroke-width:0.53px;}.cls-21{font-size:4.67px;font-family:Arial;font-weight:700;}.cls-22{fill-rule:evenodd;}</style><clipPath id="clip-path"><polygon class="cls-1" points="158.68 109.55 -0.43 109.55 -0.43 59.49 146.93 59.49 176 89.26 158.68 109.55"/></clipPath><linearGradient id="linear-gradient" x1="36.9" y1="1509.74" x2="19.55" y2="1488.3" gradientTransform="translate(0 -1426.9)" gradientUnits="userSpaceOnUse"><stop offset="0.06" stop-color="#35ade3"/><stop offset="0.21" stop-color="#37aae1"/><stop offset="0.37" stop-color="#43a0d9"/><stop offset="0.54" stop-color="#5290cd"/><stop offset="0.71" stop-color="#5e7cbe"/><stop offset="0.88" stop-color="#6c69b0"/><stop offset="0.97" stop-color="#7863ab"/></linearGradient><linearGradient id="linear-gradient-2" x1="17.18" y1="1528.46" x2="25.88" y2="1508.35" gradientTransform="translate(0 -1426.9)" gradientUnits="userSpaceOnUse"><stop offset="0.06" stop-color="#35ade3"/><stop offset="0.2" stop-color="#2ab0e5"/><stop offset="0.35" stop-color="#0fb7e0"/><stop offset="0.51" stop-color="#26bec9"/><stop offset="0.68" stop-color="#47bea6"/><stop offset="0.85" stop-color="#5dbe7e"/><stop offset="0.97" stop-color="#6bbe59"/></linearGradient><linearGradient id="linear-gradient-3" x1="29.11" y1="1502.03" x2="46.11" y2="1480.22" xlink:href="#linear-gradient-2"/><linearGradient id="linear-gradient-4" x1="35.72" y1="1486.97" x2="35.72" y2="1521.4" gradientTransform="translate(0 -1426.9)" gradientUnits="userSpaceOnUse"><stop offset="0" stop-color="#010101"/><stop offset="1" stop-color="#010101"/></linearGradient><clipPath id="clip-path-2"><polygon class="cls-2" points="139 100.27 148.63 109.89 153.81 107.3 151.22 121.74 194.91 138.04 223.98 126.37 231.39 118.97 232.31 114.34 225.28 103.78 223.43 102.49 230.65 95.27 219.12 72.12 200.24 76.29 192.74 79.21 173.07 78.97 169.73 75.83 149.41 71.98 139 100.27"/></clipPath></defs><title>pipeline</title><g class="cls-3"><g class="cls-4"><path class="cls-5" d="M193.25,79.73c0,4.95-4.32,9-9.6,9H31.25c-5.28,0-9.6-4.05-9.6-9s4.32-9,9.6-9h152.4C188.93,70.73,193.25,74.78,193.25,79.73Z"/></g><g class="cls-4"><path class="cls-6" d="M36.5,79.62a1.78,1.78,0,1,0-1.78,1.78A1.78,1.78,0,0,0,36.5,79.62Zm1.85,0A3.62,3.62,0,1,1,34.73,76,3.62,3.62,0,0,1,38.35,79.62Z"/><path class="cls-6" d="M74.21,79.62a1.78,1.78,0,1,0-1.78,1.78A1.78,1.78,0,0,0,74.21,79.62Zm1.85,0A3.62,3.62,0,1,1,72.43,76,3.62,3.62,0,0,1,76.05,79.62Z"/><path class="cls-6" d="M111.91,79.62a1.78,1.78,0,1,0-1.78,1.78A1.78,1.78,0,0,0,111.91,79.62Zm1.85,0A3.62,3.62,0,1,1,110.13,76,3.62,3.62,0,0,1,113.75,79.62Z"/><path class="cls-6" d="M149.61,79.62a1.78,1.78,0,1,0-1.78,1.78A1.78,1.78,0,0,0,149.61,79.62Zm1.85,0A3.62,3.62,0,1,1,147.83,76,3.62,3.62,0,0,1,151.45,79.62Z"/></g></g><polygon class="cls-7" points="120.88 62.87 80.82 62.87 79.52 61.94 79.52 47.06 121.52 47.06 121.52 62.45 120.88 62.87"/><rect class="cls-7" x="96.68" y="21.87" width="8.11" height="13.29"/><rect class="cls-8" x="79.58" y="21.66" width="42.3" height="41.53" rx="1.84" ry="1.84"/><path class="cls-9" d="M90.85,59.84H88.67L85.13,53.7H85.08q0.11,1.63.11,2.32v3.82H83.65V51.72h2.17l3.53,6.08h0q-0.08-1.58-.08-2.24V51.72h1.55v8.12Z"/><path class="cls-9" d="M97.16,59.84L96.93,59H96.85a1.79,1.79,0,0,1-.77.67,2.63,2.63,0,0,1-1.14.24,2.17,2.17,0,0,1-1.65-.59,2.36,2.36,0,0,1-.56-1.69v-4h1.69v3.63a1.74,1.74,0,0,0,.24,1,0.87,0.87,0,0,0,.76.34,1.14,1.14,0,0,0,1-.47,3,3,0,0,0,.32-1.57V53.63h1.69v6.21h-1.3Z"/><path class="cls-9" d="M103.46,55.28h3.22v4.21a9.05,9.05,0,0,1-1.47.36,9.6,9.6,0,0,1-1.41.1A3.58,3.58,0,0,1,101,58.87a4.49,4.49,0,0,1-1-3.1,4.09,4.09,0,0,1,1.12-3.07,4.27,4.27,0,0,1,3.12-1.1,6,6,0,0,1,2.41.5l-0.57,1.38a4.09,4.09,0,0,0-1.85-.44,2.28,2.28,0,0,0-1.79.75,2.91,2.91,0,0,0-.67,2,3.24,3.24,0,0,0,.54,2,1.87,1.87,0,0,0,1.57.7,5.58,5.58,0,0,0,1.09-.11V56.72h-1.54V55.28Z"/><path class="cls-9" d="M111.29,60a3.2,3.2,0,0,1-2.34-.83,3.13,3.13,0,0,1-.84-2.34,3.45,3.45,0,0,1,.78-2.41,2.78,2.78,0,0,1,2.16-.85,2.74,2.74,0,0,1,2,.75,2.84,2.84,0,0,1,.73,2.07v0.82h-4a1.63,1.63,0,0,0,.43,1.13,1.5,1.5,0,0,0,1.12.41,4.65,4.65,0,0,0,1.06-.12,5.3,5.3,0,0,0,1-.37v1.31a4,4,0,0,1-.95.33A6,6,0,0,1,111.29,60ZM111,54.72a1.07,1.07,0,0,0-.84.34,1.58,1.58,0,0,0-.35,1h2.38a1.41,1.41,0,0,0-.33-1A1.11,1.11,0,0,0,111,54.72Z"/><path class="cls-9" d="M117.81,58.6a3.67,3.67,0,0,0,1.07-.19v1.26a3.8,3.8,0,0,1-1.56.28,1.9,1.9,0,0,1-1.48-.51,2.24,2.24,0,0,1-.46-1.54v-3h-0.81V54.19l0.93-.57L116,52.31h1.08v1.32h1.74v1.27h-1.74v3a0.66,0.66,0,0,0,.2.53A0.8,0.8,0,0,0,117.81,58.6Z"/><path class="cls-10" d="M27.95,50.61a10.76,10.76,0,0,0-2.38-.86A12.84,12.84,0,0,0,10.8,67.82s8,17.6,9.34,20.4c0,0,14.72-6.76,17.73-13.69,2.79-6.46-1.92-18.24-2.78-20Z"/><path class="cls-11" d="M61.2,70.19a10.48,10.48,0,0,0-3.7-3.44s-10.37-5.68-10.37-5.68S11.67,81.63,11.63,81.68c-4,4.56-4.91,11.79-.3,18.08a10.85,10.85,0,0,0,5.59,4,14,14,0,0,0,11-.86C28,102.82,57,87.41,57.12,87.32A11.82,11.82,0,0,0,61.2,70.19Z"/><path class="cls-12" d="M24.72,65.68L15.25,77.3l-3.67,4.39c-4,4.56-4.91,11.79-.3,18.08a10.85,10.85,0,0,0,5.59,4,14.08,14.08,0,0,0,11-.86s0.73-.39,2-1.08c3.93-2.13,9.36-16.42,13.06-27.47Z"/><path class="cls-13" d="M39.6,76.86L47.13,61a0,0,0,0,1,0,0c0-.13.65-1.68,0.69-1.76a7.32,7.32,0,0,0-.77-6.84,6.15,6.15,0,0,0-3.83-2.71,7.06,7.06,0,0,0-7.36,2.45L34.22,54,22.17,68.85Z"/><rect class="cls-14" x="18.51" y="59.65" width="34.43" height="34.43"/><polygon class="cls-9" points="26.6 67.27 21.95 67.27 21.95 64.25 34.56 64.25 34.56 67.27 29.96 67.27 29.96 79.14 26.6 79.14 26.6 67.27"/><path class="cls-9" d="M34.56,71.73h0a7.6,7.6,0,0,1,7.79-7.79,7.7,7.7,0,0,1,5.9,2.32l-2.11,2.41A5.58,5.58,0,0,0,42.31,67,4.46,4.46,0,0,0,38,71.64v0a4.42,4.42,0,0,0,4.35,4.69,5.31,5.31,0,0,0,3.92-1.76l2.11,2.11a7.65,7.65,0,0,1-6.11,2.67,7.49,7.49,0,0,1-7.66-7.32q0-.17,0-0.34"/><rect class="cls-9" x="21.95" y="87.19" width="12.61" height="2.28"/><path class="cls-7" d="M141.16,100.69c7.66-4.94,16.67-13.4,13.25-23.37-1.86-5.43-4.44-10.09-4.79-16a36,36,0,0,1,2.18-14.62c6.87-18.45,27.3-27.18,45.76-21.63,17.1,5.14,28.87,25,21.78,42.29-4.09,10-5.92,17.69,3.2,25.46,2.47,2.11,8.47,5.26,8.45,9,0,4.89-9.62-1-10.7-1.89,1.22,2.13,13.32,14.74,5.62,15.64-7.09.83-13.34-9.07-17.6-13.32-7.15-7.14-5.91,8.65-5.94,11.91-0.05,5.15-3.69,15.59-10.22,8.79-5.39-5.61-3.35-14.56-7.1-20.79-4.11-6.83-10.94,6.83-12.65,9.33-1.91,2.79-11.45,16.31-15.25,9.11-3.08-5.84,1.84-15,4.27-20.29-0.88,1.92-7.14,4.76-9,5.68a24.34,24.34,0,0,1-13,3c-9.62-.69-2.24-5.79,1.68-8.32h0Z"/><path class="cls-9" d="M186.35,23.46a39,39,0,0,1,11.22,1.65c17.1,5.14,28.87,25,21.78,42.29-4.09,10-5.92,17.69,3.2,25.46,2.47,2.11,8.47,5.26,8.45,9a1.72,1.72,0,0,1-2,1.91c-2.87,0-8-3.2-8.75-3.8,1.22,2.13,13.32,14.74,5.62,15.64a7.27,7.27,0,0,1-.84,0c-6.74,0-12.67-9.29-16.76-13.37-1.29-1.29-2.31-1.83-3.12-1.83-3.63,0-2.8,11.08-2.83,13.75,0,4-2.19,11-6.14,11-1.2,0-2.56-.65-4.08-2.23-5.39-5.61-3.35-14.56-7.1-20.79a3.19,3.19,0,0,0-2.68-1.89c-3.92,0-8.6,9.21-10,11.22-1.51,2.22-7.84,11.19-12.29,11.19a3.3,3.3,0,0,1-3-2.09c-3.08-5.84,1.84-15,4.27-20.29-0.88,1.92-7.14,4.76-9,5.68a25.15,25.15,0,0,1-11.47,3q-0.74,0-1.5-.05c-9.45-.68-2.49-5.62,1.47-8.18l0.6-.38-0.39.25c7.66-4.94,16.67-13.4,13.25-23.37-1.86-5.43-4.44-10.09-4.79-16a36,36,0,0,1,2.18-14.62C157.3,32,171.46,23.46,186.35,23.46m-45.19,77.23h0m0,0-0.2.13-0.14.09,0.34-.22m45.19-80.21c-17,0-31.62,9.9-37.33,25.22a39.13,39.13,0,0,0-2.37,15.83c0.28,4.74,1.85,8.71,3.36,12.55,0.54,1.37,1.16,2.78,1.65,4.2,3,8.65-6,16.41-12,20.13v0.23h0V98.42l-0.07-.11,0-.05h-0.06l-0.16.08c-4.11,2.67-8.41,5.81-7.44,9.59,0.93,3.6,5.6,3.93,7.36,4.06,0.57,0,1.15.06,1.72,0.06a27.77,27.77,0,0,0,12.81-3.37l0.85-.42,0.13-.07c-1.61,4.63-2.44,9.68-.26,13.83a6.19,6.19,0,0,0,5.6,3.68c4.12,0,9.08-4.2,14.74-12.49,0.29-.42.64-1,1.09-1.76,3.57-6,5.37-7.75,6.27-8.1a2.9,2.9,0,0,1,.28.39c1.35,2.24,1.82,5.14,2.32,8.2,0.71,4.36,1.52,9.3,5.19,13.12,2,2.09,4.1,3.14,6.22,3.14,1.72,0,4.94-.75,7.24-5.76a21.55,21.55,0,0,0,1.87-8.2c0-.39,0-0.94,0-1.6-0.12-4.92.12-7.42,0.44-8.66l0.45,0.42c0.86,0.85,1.87,2,2.94,3.29,4.17,4.88,9.36,11,15.93,11a10.28,10.28,0,0,0,1.18-.07,5.47,5.47,0,0,0,4.79-3.29c1-2.47,0-5.64-2-8.64h0a4.62,4.62,0,0,0,4.93-4.82c0-4.41-4.34-7.51-7.53-9.79-0.77-.55-1.49-1.05-2-1.46-7.24-6.17-6.58-11.78-2.37-22.06A32.51,32.51,0,0,0,221,41.93a37.55,37.55,0,0,0-22.56-19.67,42,42,0,0,0-12.08-1.77h0Z"/><g class="cls-15"><path class="cls-16" d="M141.16,100.69c7.66-4.94,16.67-13.4,13.25-23.37-1.86-5.43-4.44-10.09-4.79-16a36,36,0,0,1,2.18-14.62c6.87-18.45,27.3-27.18,45.76-21.63,17.1,5.14,28.87,25,21.78,42.29-4.09,10-5.92,17.69,3.2,25.46,2.47,2.11,8.47,5.26,8.45,9,0,4.89-9.62-1-10.7-1.89,1.22,2.13,13.32,14.74,5.62,15.64-7.09.83-13.34-9.07-17.6-13.32-7.15-7.14-5.91,8.65-5.94,11.91-0.05,5.15-3.69,15.59-10.22,8.79-5.39-5.61-3.35-14.56-7.1-20.79-4.11-6.83-10.94,6.83-12.65,9.33-1.91,2.79-11.45,16.31-15.25,9.11-3.08-5.84,1.84-15,4.27-20.29-0.88,1.92-7.14,4.76-9,5.68a24.34,24.34,0,0,1-13,3c-9.62-.69-2.24-5.79,1.68-8.32h0Z"/></g><polygon class="cls-9" points="202.31 78.04 167.9 78.04 185.38 97.95 185.66 97.95 202.31 78.04"/><path class="cls-16" d="M177.45,78.45a1.14,1.14,0,0,1,.86-0.47h13.1a1,1,0,0,1,.8.5l0.19,0.38a0.67,0.67,0,0,1-.21.82l-5.39,3.79a2,2,0,0,1-1,.3l-1.76,0a2.25,2.25,0,0,1-1-.33l-5.65-3.81a0.57,0.57,0,0,1-.16-0.78Z"/><path class="cls-16" d="M186.51,83.44a0.72,0.72,0,0,0-.67-0.54h-1.95a0.72,0.72,0,0,0-.67.54l-2.74,12.5a1,1,0,0,0,.3.9l3.67,3.14a0.67,0.67,0,0,0,.84,0L189,96.85a1,1,0,0,0,.3-0.9Z"/><path class="cls-9" d="M162.84,77.74c0.13-.2,6.05-2.18,6.05-2.18A2.47,2.47,0,0,1,170,75.5l11.42,2.3a0.37,0.37,0,0,1,.26.59l-3.14,5.29a0.75,0.75,0,0,1-.82.32S161.86,79.24,162.84,77.74Z"/><path class="cls-17" d="M162.84,77.74c0.13-.2,6.05-2.18,6.05-2.18A2.47,2.47,0,0,1,170,75.5l11.42,2.3a0.37,0.37,0,0,1,.26.59l-3.14,5.29a0.75,0.75,0,0,1-.82.32S161.86,79.24,162.84,77.74Z"/><path class="cls-16" d="M205.12,76.91c2.23,0,11.92-3.4,11.92-3.4l-2.31,14L185,101.84l-2-2S200,79.36,201.55,76.58C202.84,76.58,203.51,76.91,205.12,76.91Z"/><path class="cls-9" d="M205.33,78c-0.13-.2-3.88-2.11-3.88-2.11a1.93,1.93,0,0,0-1-.15l-11.8,2.12a0.36,0.36,0,0,0-.26.58l3.14,5.29a0.73,0.73,0,0,0,.81.31S206.31,79.46,205.33,78Z"/><path class="cls-17" d="M205.33,78c-0.13-.2-3.88-2.11-3.88-2.11a1.93,1.93,0,0,0-1-.15l-11.8,2.12a0.36,0.36,0,0,0-.26.58l3.14,5.29a0.73,0.73,0,0,0,.81.31S206.31,79.46,205.33,78Z"/><path class="cls-16" d="M166.35,76.58A90.16,90.16,0,0,0,156.77,78l13.15,17.13,17.31,6.2-0.46-1s-15-21-16.57-23.77h-3.84Z"/><path class="cls-7" d="M168.83,75.3a1.52,1.52,0,0,1,.87.55l15,21.51c0.18,0.25.1,0.33-.16,0.18L165.16,86.25a0.3,0.3,0,0,1,0-.57l4.35-2.63c0.26-.16.23-0.32-0.08-0.36l-5.65-.76a0.77,0.77,0,0,1-.63-0.62l-0.89-6.55a0.39,0.39,0,0,1,.47-0.46Z"/><path class="cls-7" d="M201.43,75.49a1.6,1.6,0,0,0-.88.54L184.87,97.41c-0.18.25-.11,0.32,0.15,0.17l19.82-11.34a0.3,0.3,0,0,0,0-.56l-4.35-2.63c-0.26-.16-0.23-0.32.08-0.36l5.65-.76a0.89,0.89,0,0,0,.69-0.61l1.66-6.57a0.33,0.33,0,0,0-.41-0.44Z"/><circle class="cls-9" cx="143.96" cy="101.38" r="0.93"/><circle class="cls-9" cx="224.89" cy="96.91" r="0.93"/><circle class="cls-18" cx="171.05" cy="53.59" r="11.04"/><circle class="cls-18" cx="199.94" cy="53.59" r="11.04"/><path class="cls-16" d="M199.43,40.65a13,13,0,0,0-12.66,10.18h-3.21a13,13,0,1,0,.29,3.19h2.63A13,13,0,1,0,199.43,40.65ZM170.89,63.8a10.18,10.18,0,1,1,10.18-10.18A10.18,10.18,0,0,1,170.89,63.8Zm28.54,0a10.18,10.18,0,1,1,10.18-10.18A10.18,10.18,0,0,1,199.43,63.8Z"/><path class="cls-19" d="M166,50.46l-1.63-1-0.19.3,1.64,1Z"/><path class="cls-19" d="M168.22,48.48l-0.92-1.66L167,47l0.92,1.66Z"/><path class="cls-19" d="M175.94,51.1l1.85-1-0.17-.31-1.84,1Z"/><path class="cls-19" d="M165.14,53.52h-2v0.36h2C165.15,53.75,165.14,53.64,165.14,53.52Z"/><path class="cls-19" d="M170.81,47.85h0.29V45.92h-0.36v1.93h0.07Z"/><path class="cls-19" d="M174.1,48.9l1.07-1.72-0.3-.19L173.8,48.7Z"/><path class="cls-19" d="M165.87,56.3l-1.83,1,0.17,0.31,1.84-1Z"/><path class="cls-19" d="M175.47,56.73l2,1.21,0.19-.3-1.94-1.21Z"/><path class="cls-19" d="M176.48,53.52c0,0.12,0,.24,0,0.36h2.22V53.52h-2.21Z"/><path class="cls-19" d="M173.41,58.55l1.13,2,0.31-.17-1.13-2Z"/><path class="cls-19" d="M167.83,58.33l-1.16,1.87,0.3,0.19,1.16-1.88Z"/><path class="cls-19" d="M170.81,59.18h-0.07v2.28h0.36V59.18h-0.29Z"/><polygon class="cls-20" points="172.5 55.84 172.19 55.99 170.02 52.43 170.33 52.28 172.5 55.84"/><rect class="cls-20" x="170.72" y="52.11" width="0.36" height="5.49"/><text class="cls-21" transform="translate(194.28 51.3)">€</text><path class="cls-16" d="M206.48,54a0.4,0.4,0,0,1-.4-0.4,6.5,6.5,0,0,0-6.5-6.5,0.4,0.4,0,0,1,0-.8,7.3,7.3,0,0,1,7.29,7.29A0.4,0.4,0,0,1,206.48,54Z"/><path class="cls-16" d="M199.59,60.91a7.3,7.3,0,0,1-7.29-7.29,0.4,0.4,0,0,1,.8,0,6.5,6.5,0,0,0,6.5,6.5A0.4,0.4,0,1,1,199.59,60.91Z"/><path class="cls-22" d="M203.29,56.75c-0.47-.14-0.57-0.21-0.57-0.41s0.32-.25.51-0.25a1.05,1.05,0,0,1,.52.14,0.11,0.11,0,0,0,.15,0l0.24-.37a0.11,0.11,0,0,0,0-.15,1.62,1.62,0,0,0-.64-0.23V55.22a0.11,0.11,0,0,0-.11-0.11h-0.44a0.11,0.11,0,0,0-.11.11v0.26a0.89,0.89,0,0,0-.74.85,1.13,1.13,0,0,0,1,1c0.44,0.13.53,0.19,0.53,0.36s-0.3.23-.48,0.23a0.89,0.89,0,0,1-.6-0.24,0.11,0.11,0,0,0-.08,0,0.11,0.11,0,0,0-.08,0l-0.32.3a0.11,0.11,0,0,0,0,.15,1.48,1.48,0,0,0,.74.41v0.25a0.11,0.11,0,0,0,.11.11h0.44a0.11,0.11,0,0,0,.11-0.11V58.6a0.9,0.9,0,0,0,.83-0.86A1.08,1.08,0,0,0,203.29,56.75Z"/><path class="cls-22" d="M203.18,53.28A3.77,3.77,0,1,0,207,57,3.77,3.77,0,0,0,203.18,53.28Zm0,6.78a3,3,0,1,1,3-3A3,3,0,0,1,203.18,60.05Z"/><path class="cls-22" d="M195.76,45.94a3.77,3.77,0,1,0,3.77,3.77A3.77,3.77,0,0,0,195.76,45.94Zm0,6.78a3,3,0,1,1,3-3A3,3,0,0,1,195.76,52.72Z"/><path class="cls-16" d="M201.06,48.6a0.4,0.4,0,0,1-.28-0.12L199.31,47a0.4,0.4,0,0,1,0-.56L200.75,45a0.4,0.4,0,0,1,.56.56l-1.16,1.16,1.19,1.19A0.4,0.4,0,0,1,201.06,48.6Z"/><path class="cls-16" d="M198.14,62.37a0.4,0.4,0,0,1-.28-0.68L199,60.53l-1.19-1.19a0.4,0.4,0,1,1,.56-0.56l1.48,1.48a0.4,0.4,0,0,1,0,.56l-1.44,1.44A0.4,0.4,0,0,1,198.14,62.37Z"/></svg>