<svg id="Option_3" data-name="Option 3" xmlns="http://www.w3.org/2000/svg" xmlns:xlink="http://www.w3.org/1999/xlink" viewBox="0 0 382 130"><defs><style>.cls-1,.cls-10,.cls-14,.cls-2,.cls-7{fill:none;}.cls-1{clip-rule:evenodd;}.cls-17,.cls-18,.cls-19,.cls-21,.cls-3{fill:#fff;}.cls-20,.cls-4{fill:#54ab54;}.cls-5{clip-path:url(#clip-path);}.cls-6{opacity:0.5;}.cls-10,.cls-14,.cls-7{stroke:#009ada;}.cls-10,.cls-16,.cls-17,.cls-7{stroke-linecap:round;stroke-linejoin:round;}.cls-7{stroke-width:2.2px;stroke-dasharray:3.52 6.17;}.cls-8{fill:#0b9ad6;}.cls-9{fill:#012639;}.cls-10{stroke-width:4.38px;}.cls-11{fill:#009ada;}.cls-12{clip-path:url(#clip-path-2);}.cls-13,.cls-16{fill:#1a2e3e;}.cls-14,.cls-20{stroke-miterlimit:10;}.cls-14{stroke-width:0.35px;}.cls-15{fill:#5ab1e3;}.cls-16{stroke:#1a2e3e;stroke-width:0.35px;}.cls-17,.cls-20{stroke:#fff;}.cls-17{stroke-width:0.34px;}.cls-18{font-size:2.94px;font-family:Arial;font-weight:700;}.cls-19{fill-rule:evenodd;}.cls-20{stroke-width:1.01px;}.cls-21{font-size:20.15px;font-family:FontAwesome;}</style><clipPath id="clip-path"><polygon class="cls-1" points="170.18 110.69 11.07 110.69 11.07 60.63 158.43 60.63 187.5 90.4 170.18 110.69"/></clipPath><clipPath id="clip-path-2"><polygon class="cls-2" points="5.3 88.75 11.35 94.81 14.61 93.18 12.98 102.25 40.45 112.49 58.72 105.16 63.37 100.51 63.95 97.6 59.53 90.97 58.37 90.15 62.91 85.61 55.66 71.06 43.79 73.68 39.08 75.52 26.71 75.37 24.62 73.39 11.85 70.98 5.3 88.75"/></clipPath></defs><title>pipeline</title><rect class="cls-3" x="80.7" y="36.3" width="31.83" height="21.03"/><path class="cls-4" d="M76.45,29.88v34.6h41.87V29.88H76.45ZM89.09,51.65H87l-2.51-6.89h2.32L87.7,48a15.92,15.92,0,0,1,.39,1.67h0c0.11-.56.23-1.08,0.38-1.67l0.89-3.2h2.25Zm8.09,0H95.11V44.39h0l-1.75.83L93,43.62l2.42-1.13h1.78v9.15Zm4.38,0.16h0a1.3,1.3,0,1,1,1.28-1.3,1.23,1.23,0,0,1-1.28,1.3Zm5,0a5.42,5.42,0,0,1-2.72-.65l0.44-1.61a5.06,5.06,0,0,0,2.13.56c1.11,0,1.68-.53,1.68-1.22,0-.9-0.9-1.31-1.85-1.31h-0.87V46h0.83c0.72,0,1.63-.28,1.63-1.06,0-.55-0.45-1-1.35-1a4.19,4.19,0,0,0-1.91.55L104.09,43a5.73,5.73,0,0,1,2.83-.69c2,0,3,1,3,2.28a2.19,2.19,0,0,1-1.68,2.13v0a2.27,2.27,0,0,1,2,2.23C110.27,50.62,108.85,51.8,106.52,51.8Z"/><g class="cls-5"><g class="cls-6"><path class="cls-7" d="M204.75,80.87c0,4.95-4.32,9-9.6,9H42.75c-5.28,0-9.6-4.05-9.6-9s4.32-9,9.6-9h152.4C200.43,71.87,204.75,75.92,204.75,80.87Z"/></g><g class="cls-6"><path class="cls-8" d="M48,80.76a1.78,1.78,0,1,0-1.78,1.78A1.78,1.78,0,0,0,48,80.76Zm1.85,0a3.62,3.62,0,1,1-3.62-3.62A3.62,3.62,0,0,1,49.85,80.76Z"/><path class="cls-8" d="M85.7,80.76a1.78,1.78,0,1,0-1.78,1.78A1.78,1.78,0,0,0,85.7,80.76Zm1.85,0a3.62,3.62,0,1,1-3.62-3.62A3.62,3.62,0,0,1,87.55,80.76Z"/><path class="cls-8" d="M123.4,80.76a1.78,1.78,0,1,0-1.78,1.78A1.78,1.78,0,0,0,123.4,80.76Zm1.85,0a3.62,3.62,0,1,1-3.62-3.62A3.62,3.62,0,0,1,125.25,80.76Z"/><path class="cls-8" d="M161.1,80.76a1.78,1.78,0,1,0-1.78,1.78A1.78,1.78,0,0,0,161.1,80.76Zm1.85,0a3.62,3.62,0,1,1-3.62-3.62A3.62,3.62,0,0,1,163,80.76Z"/></g></g><rect class="cls-9" x="140.82" y="33.83" width="92.06" height="83.61" rx="6.47" ry="6.47"/><path class="cls-10" d="M156.53,101.74h21.15a8.89,8.89,0,0,0,8.86-8.86V81.11"/><path class="cls-10" d="M156.53,101.74h59.72"/><path class="cls-10" d="M217.18,101.74H196a8.89,8.89,0,0,1-8.86-8.86V81.11"/><rect class="cls-3" x="146.68" y="52.15" width="80.35" height="21.89" rx="8.86" ry="8.86"/><path class="cls-9" d="M166.16,68.27H164.7V60.58h-2.63V59.33h6.73v1.25h-2.63v7.69Z"/><path class="cls-9" d="M175.1,68.27H170V59.33h5.06v1.24h-3.6V63h3.37v1.22H171.5V67h3.6v1.24Z"/><path class="cls-9" d="M182.06,65.84a2.25,2.25,0,0,1-.86,1.87,3.76,3.76,0,0,1-2.38.68,5.69,5.69,0,0,1-2.48-.47V66.54a6.78,6.78,0,0,0,1.3.45,5.52,5.52,0,0,0,1.28.17,2,2,0,0,0,1.28-.33,1.08,1.08,0,0,0,.41-0.89,1.11,1.11,0,0,0-.38-0.85,5.71,5.71,0,0,0-1.57-.83,4.14,4.14,0,0,1-1.73-1.13,2.39,2.39,0,0,1-.5-1.53,2.14,2.14,0,0,1,.8-1.76,3.3,3.3,0,0,1,2.13-.64,6.28,6.28,0,0,1,2.56.56L181.47,61a5.59,5.59,0,0,0-2.13-.5,1.64,1.64,0,0,0-1.08.31,1,1,0,0,0-.37.82,1.16,1.16,0,0,0,.15.6,1.51,1.51,0,0,0,.48.47,8.16,8.16,0,0,0,1.21.58,6.69,6.69,0,0,1,1.44.76,2.26,2.26,0,0,1,.67.8A2.4,2.4,0,0,1,182.06,65.84Z"/><path class="cls-9" d="M186.76,68.27H185.3V60.58h-2.63V59.33h6.73v1.25h-2.63v7.69Z"/><path class="cls-9" d="M190.64,68.27V59.33h1.46v8.95h-1.46Z"/><path class="cls-9" d="M201.79,68.27H200l-4.4-7.13h0l0,0.4q0.08,1.14.08,2.08v4.65h-1.33V59.33h1.77l4.39,7.09h0q0-.14,0-1c0-.59,0-1,0-1.38V59.33h1.34v8.95Z"/><path class="cls-9" d="M207.69,63.42H211v4.49a9.54,9.54,0,0,1-1.55.37,11,11,0,0,1-1.61.11,4,4,0,0,1-3.13-1.2,4.84,4.84,0,0,1-1.1-3.39,4.52,4.52,0,0,1,1.24-3.38,4.67,4.67,0,0,1,3.42-1.22,6.67,6.67,0,0,1,2.66.54L210.39,61a5.17,5.17,0,0,0-2.18-.5,2.93,2.93,0,0,0-2.26.9,3.48,3.48,0,0,0-.83,2.46,3.67,3.67,0,0,0,.75,2.49,2.72,2.72,0,0,0,2.16.85,7.08,7.08,0,0,0,1.52-.18V64.67h-1.85V63.42Z"/><path class="cls-11" d="M6.66,89c4.82-3.1,10.48-8.42,8.33-14.69-1.17-3.41-2.79-6.34-3-10a22.59,22.59,0,0,1,1.37-9.19C17.67,43.52,30.51,38,42.12,41.52,52.87,44.75,60.26,57.23,55.81,68.1c-2.57,6.28-3.72,11.12,2,16,1.55,1.32,5.33,3.31,5.31,5.65,0,3.07-6-.65-6.72-1.19,0.77,1.34,8.37,9.27,3.53,9.83-4.45.52-8.39-5.7-11.06-8.37-4.5-4.49-3.71,5.44-3.73,7.49,0,3.24-2.32,9.8-6.42,5.52-3.39-3.53-2.11-9.15-4.46-13.07-2.58-4.29-6.88,4.29-7.95,5.86-1.2,1.75-7.2,10.25-9.58,5.72-1.94-3.67,1.16-9.43,2.68-12.76-0.56,1.21-4.49,3-5.64,3.57a15.3,15.3,0,0,1-8.15,1.88c-6-.43-1.41-3.64,1.05-5.23h0Z"/><path class="cls-3" d="M35.06,40.48a24.52,24.52,0,0,1,7.05,1C52.87,44.75,60.26,57.23,55.81,68.1c-2.57,6.28-3.72,11.12,2,16,1.55,1.32,5.33,3.31,5.31,5.65A1.08,1.08,0,0,1,61.9,91c-1.8,0-5-2-5.5-2.39,0.77,1.34,8.37,9.27,3.53,9.83a4.55,4.55,0,0,1-.53,0c-4.24,0-8-5.84-10.54-8.4a3.12,3.12,0,0,0-2-1.15c-2.28,0-1.76,7-1.78,8.64,0,2.48-1.38,6.93-3.86,6.93a3.72,3.72,0,0,1-2.56-1.4c-3.39-3.53-2.11-9.15-4.46-13.07a2,2,0,0,0-1.68-1.19c-2.46,0-5.4,5.79-6.27,7.05s-4.93,7-7.72,7a2.07,2.07,0,0,1-1.86-1.31c-1.94-3.67,1.16-9.43,2.68-12.76-0.56,1.21-4.49,3-5.64,3.57a15.8,15.8,0,0,1-7.21,1.91q-0.47,0-.95,0c-5.93-.43-1.57-3.53.92-5.14l0.38-.24L6.66,89c4.82-3.1,10.48-8.42,8.33-14.69-1.17-3.41-2.79-6.34-3-10a22.59,22.59,0,0,1,1.37-9.19A22.86,22.86,0,0,1,35.06,40.48M6.66,89l-0.14.09-0.08.05L6.66,89m28.4-50.41a24.36,24.36,0,0,0-25,25.8,24.92,24.92,0,0,0,2.11,7.89c0.34,0.86.69,1.75,1,2.64,1.87,5.44-3.94,10.17-7.57,12.51h0l0,0-0.09.06c-2.58,1.67-5.28,3.66-4.67,6S4.37,96,5.48,96.12c0.36,0,.72,0,1.08,0A17.45,17.45,0,0,0,14.61,94l0.53-.26,0.09,0c-1,2.91-1.54,6.08-.16,8.69a3.89,3.89,0,0,0,3.52,2.31c2.59,0,5.71-2.64,9.27-7.85,0.18-.27.4-0.64,0.68-1.11,2.24-3.76,3.38-4.87,3.94-5.09a1.83,1.83,0,0,1,.17.25,14.71,14.71,0,0,1,1.46,5.16c0.45,2.74,1,5.85,3.26,8.25a5.5,5.5,0,0,0,3.91,2c1.08,0,3.11-.47,4.55-3.62A13.54,13.54,0,0,0,47,97.54c0-.24,0-0.59,0-1a23.16,23.16,0,0,1,.27-5.44l0.28,0.27c0.54,0.54,1.17,1.28,1.85,2.07,2.62,3.07,5.89,6.88,10,6.88a6.44,6.44,0,0,0,.74,0,3.47,3.47,0,0,0,3-2.12c0.64-1.55,0-3.49-1.27-5.49h0a2.86,2.86,0,0,0,3.1-3c0-2.77-2.73-4.69-4.73-6.12-0.48-.34-0.94-0.65-1.24-0.9-4.55-3.88-4.14-7.4-1.49-13.86a20.43,20.43,0,0,0-.7-16.71A23.6,23.6,0,0,0,42.66,39.72a26.37,26.37,0,0,0-7.59-1.11h0Z"/><g class="cls-12"><path class="cls-13" d="M6.66,89c4.82-3.1,10.48-8.42,8.33-14.69-1.17-3.41-2.79-6.34-3-10a22.59,22.59,0,0,1,1.37-9.19C17.67,43.52,30.51,38,42.12,41.52,52.87,44.75,60.26,57.23,55.81,68.1c-2.57,6.28-3.72,11.12,2,16,1.55,1.32,5.33,3.31,5.31,5.65,0,3.07-6-.65-6.72-1.19,0.77,1.34,8.37,9.27,3.53,9.83-4.45.52-8.39-5.7-11.06-8.37-4.5-4.49-3.71,5.44-3.73,7.49,0,3.24-2.32,9.8-6.42,5.52-3.39-3.53-2.11-9.15-4.46-13.07-2.58-4.29-6.88,4.29-7.95,5.86-1.2,1.75-7.2,10.25-9.58,5.72-1.94-3.67,1.16-9.43,2.68-12.76-0.56,1.21-4.49,3-5.64,3.57a15.3,15.3,0,0,1-8.15,1.88c-6-.43-1.41-3.64,1.05-5.23h0Z"/></g><polygon class="cls-3" points="45.09 74.79 23.47 74.79 34.45 87.3 34.63 87.3 45.09 74.79"/><path class="cls-13" d="M29.47,75A0.72,0.72,0,0,1,30,74.75h8.23a0.62,0.62,0,0,1,.51.31l0.12,0.24a0.42,0.42,0,0,1-.13.51L35.35,78.2a1.24,1.24,0,0,1-.63.19l-1.11,0a1.42,1.42,0,0,1-.64-0.2l-3.55-2.39a0.36,0.36,0,0,1-.1-0.49Z"/><path class="cls-13" d="M35.16,78.18a0.46,0.46,0,0,0-.42-0.34H33.52a0.46,0.46,0,0,0-.42.34L31.37,86a0.64,0.64,0,0,0,.19.57l2.31,2a0.42,0.42,0,0,0,.53,0l2.31-2A0.64,0.64,0,0,0,36.89,86Z"/><path class="cls-3" d="M20.29,74.6c0.08-.12,3.81-1.37,3.81-1.37a1.55,1.55,0,0,1,.67,0l7.18,1.45a0.23,0.23,0,0,1,.16.37l-2,3.32a0.47,0.47,0,0,1-.51.2S19.67,75.54,20.29,74.6Z"/><path class="cls-14" d="M20.29,74.6c0.08-.12,3.81-1.37,3.81-1.37a1.55,1.55,0,0,1,.67,0l7.18,1.45a0.23,0.23,0,0,1,.16.37l-2,3.32a0.47,0.47,0,0,1-.51.2S19.67,75.54,20.29,74.6Z"/><path class="cls-13" d="M46.86,74.08c1.4,0,7.49-2.14,7.49-2.14L52.9,80.72l-18.68,9L33,88.46S43.61,75.61,44.62,73.87C45.43,73.87,45.85,74.08,46.86,74.08Z"/><path class="cls-3" d="M47,74.73c-0.08-.12-2.44-1.32-2.44-1.32a1.21,1.21,0,0,0-.65-0.1l-7.42,1.33a0.23,0.23,0,0,0-.17.36l2,3.32a0.46,0.46,0,0,0,.51.19S47.61,75.67,47,74.73Z"/><path class="cls-14" d="M47,74.73c-0.08-.12-2.44-1.32-2.44-1.32a1.21,1.21,0,0,0-.65-0.1l-7.42,1.33a0.23,0.23,0,0,0-.17.36l2,3.32a0.46,0.46,0,0,0,.51.19S47.61,75.67,47,74.73Z"/><path class="cls-13" d="M22.49,73.87a56.67,56.67,0,0,0-6,.92l8.26,10.76,10.88,3.9-0.29-.64s-9.41-13.2-10.42-14.94H22.49Z"/><path class="cls-11" d="M24.05,73.06a1,1,0,0,1,.54.34L34,86.93c0.11,0.16.06,0.21-.1,0.11l-12.2-7.09a0.19,0.19,0,0,1,0-.36l2.73-1.65c0.16-.1.14-0.2,0-0.23l-3.55-.48a0.49,0.49,0,0,1-.39-0.39l-0.56-4.12a0.24,0.24,0,0,1,.3-0.29Z"/><path class="cls-11" d="M44.54,73.18a1,1,0,0,0-.55.34L34.14,87c-0.11.15-.07,0.2,0.1,0.11l12.45-7.13a0.19,0.19,0,0,0,0-.35L44,77.93c-0.16-.1-0.14-0.2,0-0.23l3.55-.48A0.56,0.56,0,0,0,48,76.84l1-4.13a0.21,0.21,0,0,0-.26-0.28Z"/><circle class="cls-3" cx="8.42" cy="89.45" r="0.58"/><circle class="cls-3" cx="59.28" cy="86.64" r="0.58"/><circle class="cls-15" cx="25.45" cy="59.41" r="6.94"/><circle class="cls-15" cx="43.6" cy="59.41" r="6.94"/><path class="cls-13" d="M43.29,51.28a8.15,8.15,0,0,0-8,6.4h-2a8.17,8.17,0,1,0,.18,2h1.66A8.15,8.15,0,1,0,43.29,51.28ZM25.35,65.84a6.4,6.4,0,1,1,6.4-6.4A6.4,6.4,0,0,1,25.35,65.84Zm17.94,0a6.4,6.4,0,1,1,6.4-6.4A6.4,6.4,0,0,1,43.29,65.84Z"/><path class="cls-16" d="M22.3,57.45l-1-.64L21.15,57l1,0.64Z"/><path class="cls-16" d="M23.67,56.2l-0.58-1-0.2.11,0.58,1Z"/><path class="cls-16" d="M28.52,57.85l1.17-.65L29.58,57l-1.16.64Z"/><path class="cls-16" d="M21.73,59.37H20.48v0.22h1.26C21.74,59.52,21.73,59.44,21.73,59.37Z"/><path class="cls-16" d="M25.3,55.81h0.18V54.6H25.25v1.21h0Z"/><path class="cls-16" d="M27.36,56.47L28,55.39l-0.19-.12-0.67,1.07Z"/><path class="cls-16" d="M22.19,61.12L21,61.76,21.15,62l1.16-.65Z"/><path class="cls-16" d="M28.23,61.39l1.23,0.76L29.57,62l-1.22-.76Z"/><path class="cls-16" d="M28.86,59.37c0,0.08,0,.15,0,0.22h1.4V59.37H28.86Z"/><path class="cls-16" d="M26.93,62.53l0.71,1.27,0.2-.11-0.71-1.27Z"/><path class="cls-16" d="M23.42,62.4l-0.73,1.17,0.19,0.12,0.73-1.18Z"/><path class="cls-16" d="M25.3,62.93h0v1.43h0.22V62.93H25.3Z"/><polygon class="cls-17" points="26.36 60.83 26.16 60.93 24.8 58.69 25 58.59 26.36 60.83"/><rect class="cls-17" x="25.24" y="58.49" width="0.22" height="3.45"/><text class="cls-18" transform="translate(40.05 57.98)">€</text><path class="cls-13" d="M47.72,59.68a0.25,0.25,0,0,1-.25-0.25,4.09,4.09,0,0,0-4.08-4.08,0.25,0.25,0,0,1,0-.5A4.59,4.59,0,0,1,48,59.43,0.25,0.25,0,0,1,47.72,59.68Z"/><path class="cls-13" d="M43.38,64a4.59,4.59,0,0,1-4.58-4.58,0.25,0.25,0,0,1,.5,0,4.09,4.09,0,0,0,4.08,4.08A0.25,0.25,0,0,1,43.38,64Z"/><path class="cls-19" d="M45.71,61.4c-0.29-.09-0.36-0.13-0.36-0.26s0.2-.16.32-0.16a0.66,0.66,0,0,1,.33.09,0.07,0.07,0,0,0,.09,0l0.15-.23a0.07,0.07,0,0,0,0-.09,1,1,0,0,0-.4-0.14V60.44a0.07,0.07,0,0,0-.07-0.07H45.47a0.07,0.07,0,0,0-.07.07v0.16a0.56,0.56,0,0,0-.46.54,0.71,0.71,0,0,0,.65.65c0.28,0.08.33,0.12,0.33,0.23s-0.19.15-.3,0.15A0.56,0.56,0,0,1,45.24,62l0,0,0,0-0.2.19a0.07,0.07,0,0,0,0,.1,0.93,0.93,0,0,0,.46.26v0.16a0.07,0.07,0,0,0,.07.07h0.27a0.07,0.07,0,0,0,.07-0.07V62.56A0.56,0.56,0,0,0,46.34,62,0.68,0.68,0,0,0,45.71,61.4Z"/><path class="cls-19" d="M45.65,59.22A2.37,2.37,0,1,0,48,61.59,2.37,2.37,0,0,0,45.65,59.22Zm0,4.26a1.89,1.89,0,1,1,1.89-1.89A1.89,1.89,0,0,1,45.65,63.48Z"/><path class="cls-19" d="M41,54.61A2.37,2.37,0,1,0,43.35,57,2.37,2.37,0,0,0,41,54.61Zm0,4.26A1.89,1.89,0,1,1,42.87,57,1.89,1.89,0,0,1,41,58.87Z"/><path class="cls-13" d="M44.31,56.28a0.25,0.25,0,0,1-.18-0.07l-0.93-.93a0.25,0.25,0,0,1,0-.35L44.11,54a0.25,0.25,0,1,1,.35.35l-0.73.73,0.75,0.75A0.25,0.25,0,0,1,44.31,56.28Z"/><path class="cls-13" d="M42.48,64.93a0.25,0.25,0,0,1-.18-0.43L43,63.78,42.28,63a0.25,0.25,0,1,1,.35-0.35l0.93,0.93a0.25,0.25,0,0,1,0,.35l-0.91.91A0.25,0.25,0,0,1,42.48,64.93Z"/><circle class="cls-20" cx="232.24" cy="34.1" r="15.36"/><text class="cls-21" transform="translate(222.18 40.24)"></text></svg>