<svg id="Option_3" data-name="Option 3" xmlns="http://www.w3.org/2000/svg" xmlns:xlink="http://www.w3.org/1999/xlink" viewBox="0 0 382 130"><defs><style>.cls-1,.cls-4,.cls-9{fill:none;}.cls-1{clip-rule:evenodd;}.cls-2{clip-path:url(#clip-path);}.cls-3{opacity:0.5;}.cls-4,.cls-9{stroke:#009ada;}.cls-4{stroke-linecap:round;stroke-linejoin:round;stroke-width:2.2px;stroke-dasharray:3.52 6.17;}.cls-5{fill:#0b9ad6;}.cls-10,.cls-6{fill:#012639;}.cls-6{fill-rule:evenodd;}.cls-7{fill:#009ada;}.cls-8{fill:#fff;}.cls-9{stroke-miterlimit:10;stroke-width:0.83px;}.cls-11{fill:#d1d3d4;}</style><clipPath id="clip-path"><polygon class="cls-1" points="170.35 137.72 11.24 137.72 11.24 87.65 158.59 87.65 187.67 117.43 170.35 137.72"/></clipPath></defs><title>pipeline</title><g class="cls-2"><g class="cls-3"><path class="cls-4" d="M204.92,107.9c0,5-4.32,9-9.6,9H42.92c-5.28,0-9.6-4-9.6-9s4.32-9,9.6-9h152.4C200.6,98.9,204.92,102.95,204.92,107.9Z"/></g><g class="cls-3"><path class="cls-5" d="M48.17,107.79a1.78,1.78,0,1,0-1.78,1.78A1.78,1.78,0,0,0,48.17,107.79Zm1.85,0a3.62,3.62,0,1,1-3.62-3.62A3.62,3.62,0,0,1,50,107.79Z"/><path class="cls-5" d="M85.87,107.79a1.78,1.78,0,1,0-1.78,1.78A1.78,1.78,0,0,0,85.87,107.79Zm1.85,0a3.62,3.62,0,1,1-3.62-3.62A3.62,3.62,0,0,1,87.72,107.79Z"/><path class="cls-5" d="M123.57,107.79a1.78,1.78,0,1,0-1.78,1.78A1.78,1.78,0,0,0,123.57,107.79Zm1.85,0a3.62,3.62,0,1,1-3.62-3.62A3.62,3.62,0,0,1,125.42,107.79Z"/><path class="cls-5" d="M161.28,107.79a1.78,1.78,0,1,0-1.78,1.78A1.78,1.78,0,0,0,161.28,107.79Zm1.85,0a3.62,3.62,0,1,1-3.62-3.62A3.62,3.62,0,0,1,163.12,107.79Z"/></g></g><path class="cls-6" d="M199.17,27.7a46.42,46.42,0,0,0-14.67,90.46c2.32,0.43,3.17-1,3.17-2.24s0-4-.06-7.89c-12.91,2.8-15.64-6.22-15.64-6.22-2.11-5.36-5.15-6.79-5.15-6.79-4.21-2.88.32-2.82,0.32-2.82,4.66,0.33,7.11,4.78,7.11,4.78,4.14,7.09,10.86,5,13.51,3.86a9.92,9.92,0,0,1,2.95-6.21c-10.31-1.17-21.14-5.15-21.14-22.94a17.94,17.94,0,0,1,4.78-12.46c-0.48-1.17-2.07-5.89.46-12.28,0,0,3.9-1.25,12.76,4.76a44,44,0,0,1,23.24,0c8.86-6,12.75-4.76,12.75-4.76,2.53,6.39.94,11.11,0.46,12.28a17.91,17.91,0,0,1,4.77,12.46c0,17.83-10.85,21.75-21.19,22.9,1.67,1.43,3.15,4.27,3.15,8.6,0,6.21-.06,11.21-0.06,12.73,0,1.24.84,2.69,3.19,2.23A46.42,46.42,0,0,0,199.17,27.7Z"/><polygon class="cls-7" points="129.07 91.86 86.12 91.86 84.73 90.45 84.73 73.78 129.76 73.78 129.76 91.22 129.07 91.86"/><polygon class="cls-8" points="117.63 30.08 86.12 30.08 84.73 31.48 84.73 74.17 129.76 74.17 129.76 42.54 117.63 30.08"/><path class="cls-7" d="M101.38,63L89.93,58V56.82l11.45-5.71v1.78l-9.32,4.42,9.32,3.91V63Z"/><path class="cls-7" d="M111.36,48.48l-6.5,17.43h-2l6.5-17.43h2Z"/><path class="cls-7" d="M112.85,61.22l9.33-3.89-9.33-4.45V51.11l11.45,5.71V58l-11.45,5v-1.8Z"/><path class="cls-9" d="M130.16,88.77a3,3,0,0,1-3,3H87.72a3,3,0,0,1-3-3V33.13a3,3,0,0,1,3-3h30.12l12.32,12.74v45.9Z"/><path class="cls-7" d="M130.17,42.81H119.42a1.62,1.62,0,0,1-1.62-1.62V30.09"/><path class="cls-8" d="M95.08,84.88l-5-2.2V82l5-2.49v1.2l-3.43,1.59,3.43,1.41v1.2Z"/><path class="cls-8" d="M98.6,86Q96,86,96,83.12a3.06,3.06,0,0,1,.71-2.18,2.67,2.67,0,0,1,2-.75,3.89,3.89,0,0,1,1.74.38L100,81.75q-0.36-.15-0.67-0.24a2.18,2.18,0,0,0-.62-0.09q-1.19,0-1.19,1.69t1.19,1.64a2.71,2.71,0,0,0,.82-0.12,2.94,2.94,0,0,0,.75-0.37v1.31a2.46,2.46,0,0,1-.75.33A4.21,4.21,0,0,1,98.6,86Z"/><path class="cls-8" d="M106.69,83.08a3,3,0,0,1-.72,2.14,2.62,2.62,0,0,1-2,.77,2.81,2.81,0,0,1-1.42-.35,2.35,2.35,0,0,1-.95-1,3.41,3.41,0,0,1-.33-1.54,3,3,0,0,1,.72-2.14,2.63,2.63,0,0,1,2-.76,2.83,2.83,0,0,1,1.42.35,2.34,2.34,0,0,1,.95,1A3.38,3.38,0,0,1,106.69,83.08Zm-3.88,0a2.35,2.35,0,0,0,.27,1.26,1,1,0,0,0,.89.43,1,1,0,0,0,.88-0.42,2.39,2.39,0,0,0,.27-1.26,2.32,2.32,0,0,0-.27-1.25,1.15,1.15,0,0,0-1.77,0A2.32,2.32,0,0,0,102.82,83.08Z"/><path class="cls-8" d="M109.73,86a1.82,1.82,0,0,1-1.55-.77,4.3,4.3,0,0,1,0-4.27,1.86,1.86,0,0,1,1.58-.77,1.83,1.83,0,0,1,1.61.82h0a6.27,6.27,0,0,1-.12-1.12V78.1h1.53v7.8h-1.17l-0.3-.73h-0.07A1.75,1.75,0,0,1,109.73,86Zm0.54-1.22a1,1,0,0,0,.86-0.34,2,2,0,0,0,.3-1.16V83.11a2.3,2.3,0,0,0-.28-1.29,1,1,0,0,0-.9-0.39,0.9,0.9,0,0,0-.79.43,2.32,2.32,0,0,0-.28,1.26,2.19,2.19,0,0,0,.29,1.24A0.93,0.93,0,0,0,110.27,84.78Z"/><path class="cls-8" d="M117,86a2.89,2.89,0,0,1-2.12-.75,2.83,2.83,0,0,1-.76-2.12,3.11,3.11,0,0,1,.7-2.18,2.51,2.51,0,0,1,1.95-.77,2.47,2.47,0,0,1,1.85.68,2.56,2.56,0,0,1,.66,1.87v0.74h-3.61a1.47,1.47,0,0,0,.39,1,1.36,1.36,0,0,0,1,.37,4.21,4.21,0,0,0,1-.11,4.79,4.79,0,0,0,.94-0.34V85.6a3.6,3.6,0,0,1-.86.3A5.41,5.41,0,0,1,117,86Zm-0.22-4.72a1,1,0,0,0-.76.31,1.43,1.43,0,0,0-.32.87h2.15a1.28,1.28,0,0,0-.3-0.87A1,1,0,0,0,116.77,81.27Z"/><path class="cls-8" d="M120.16,83.68l3.43-1.41-3.43-1.59v-1.2l5,2.49v0.72l-5,2.2v-1.2Z"/><rect class="cls-10" x="35.76" y="46.12" width="22.29" height="23.24"/><rect class="cls-10" x="5.63" y="44.63" width="44.13" height="26.23"/><path class="cls-11" d="M107,45.13H87.65v0H71.24l8.54-8.63a2.87,2.87,0,0,0-4.07-4L60.29,48l-0.14.16H58.09V67.48h2.23l4.33,3.3h23V70.66h5.29a2.87,2.87,0,0,0,0-5.73H87.65V64.06H96.4a2.87,2.87,0,0,0,0-5.73H87.65V57.46h12.43a2.87,2.87,0,0,0,0-5.73H87.65V50.87H107A2.87,2.87,0,0,0,107,45.13Z"/></svg>