<svg id="Option_3" data-name="Option 3" xmlns="http://www.w3.org/2000/svg" xmlns:xlink="http://www.w3.org/1999/xlink" viewBox="0 0 382 130"><defs><style>.cls-1,.cls-10,.cls-14,.cls-2,.cls-7{fill:none;}.cls-1{clip-rule:evenodd;}.cls-17,.cls-18,.cls-19,.cls-3{fill:#fff;}.cls-4{fill:#54ab54;}.cls-5{clip-path:url(#clip-path);}.cls-6{opacity:0.5;}.cls-10,.cls-14,.cls-7{stroke:#009ada;}.cls-10,.cls-16,.cls-17,.cls-7{stroke-linecap:round;stroke-linejoin:round;}.cls-7{stroke-width:2.2px;stroke-dasharray:3.52 6.17;}.cls-8{fill:#0b9ad6;}.cls-9{fill:#012639;}.cls-10{stroke-width:4.38px;}.cls-11{fill:#009ada;}.cls-12{clip-path:url(#clip-path-2);}.cls-13,.cls-16{fill:#1a2e3e;}.cls-14{stroke-miterlimit:10;stroke-width:0.35px;}.cls-15{fill:#5ab1e3;}.cls-16{stroke:#1a2e3e;stroke-width:0.35px;}.cls-17{stroke:#fff;stroke-width:0.34px;}.cls-18{font-size:2.94px;font-family:Arial;font-weight:700;}.cls-19{fill-rule:evenodd;}</style><clipPath id="clip-path"><polygon class="cls-1" points="172.49 110.22 13.38 110.22 13.38 60.16 160.74 60.16 189.81 89.93 172.49 110.22"/></clipPath><clipPath id="clip-path-2"><polygon class="cls-2" points="7.61 88.28 13.66 94.33 16.92 92.71 15.29 101.78 42.76 112.02 61.03 104.69 65.68 100.04 66.27 97.13 61.84 90.5 60.68 89.68 65.22 85.14 57.97 70.59 46.1 73.21 41.39 75.05 29.03 74.9 26.93 72.92 14.16 70.51 7.61 88.28"/></clipPath></defs><title>pipeline</title><rect class="cls-3" x="83.01" y="35.83" width="31.83" height="21.03"/><path class="cls-4" d="M78.76,29.41V64h41.87V29.41H78.76ZM91.4,51.18H89.26l-2.51-6.89h2.32L90,47.49a15.92,15.92,0,0,1,.39,1.67h0c0.11-.56.23-1.08,0.38-1.67l0.89-3.2H94Zm8.09,0H97.42V43.92h0l-1.75.83-0.35-1.61L97.72,42h1.78v9.15Zm4.38,0.16h0a1.3,1.3,0,1,1,1.28-1.3,1.23,1.23,0,0,1-1.28,1.3Zm5,0a5.42,5.42,0,0,1-2.72-.65l0.44-1.61a5.06,5.06,0,0,0,2.13.56c1.11,0,1.68-.53,1.68-1.22,0-.9-0.9-1.31-1.85-1.31h-0.87V45.57h0.83c0.72,0,1.63-.28,1.63-1.06,0-.55-0.45-1-1.35-1a4.19,4.19,0,0,0-1.91.55l-0.44-1.55a5.73,5.73,0,0,1,2.83-.69c2,0,3,1,3,2.28a2.19,2.19,0,0,1-1.68,2.13v0a2.27,2.27,0,0,1,2,2.23C112.58,50.15,111.16,51.33,108.83,51.33Z"/><g class="cls-5"><g class="cls-6"><path class="cls-7" d="M207.06,80.4c0,5-4.32,9-9.6,9H45.06c-5.28,0-9.6-4-9.6-9s4.32-9,9.6-9h152.4C202.74,71.4,207.06,75.45,207.06,80.4Z"/></g><g class="cls-6"><path class="cls-8" d="M50.31,80.29a1.78,1.78,0,1,0-1.78,1.78A1.78,1.78,0,0,0,50.31,80.29Zm1.85,0a3.62,3.62,0,1,1-3.62-3.62A3.62,3.62,0,0,1,52.16,80.29Z"/><path class="cls-8" d="M88,80.29a1.78,1.78,0,1,0-1.78,1.78A1.78,1.78,0,0,0,88,80.29Zm1.85,0a3.62,3.62,0,1,1-3.62-3.62A3.62,3.62,0,0,1,89.86,80.29Z"/><path class="cls-8" d="M125.72,80.29a1.78,1.78,0,1,0-1.78,1.78A1.78,1.78,0,0,0,125.72,80.29Zm1.85,0a3.62,3.62,0,1,1-3.62-3.62A3.62,3.62,0,0,1,127.56,80.29Z"/><path class="cls-8" d="M163.42,80.29a1.78,1.78,0,1,0-1.78,1.78A1.78,1.78,0,0,0,163.42,80.29Zm1.85,0a3.62,3.62,0,1,1-3.62-3.62A3.62,3.62,0,0,1,165.26,80.29Z"/></g></g><rect class="cls-9" x="143.14" y="33.36" width="92.06" height="83.61" rx="6.47" ry="6.47"/><path class="cls-10" d="M158.84,101.27H180a8.89,8.89,0,0,0,8.86-8.86V80.64"/><path class="cls-10" d="M158.84,101.27h59.72"/><path class="cls-10" d="M219.5,101.27H198.34a8.89,8.89,0,0,1-8.86-8.86V80.64"/><rect class="cls-3" x="148.99" y="51.68" width="80.35" height="21.89" rx="8.86" ry="8.86"/><path class="cls-11" d="M9,88.55c4.82-3.1,10.48-8.42,8.33-14.69-1.17-3.41-2.79-6.34-3-10a22.59,22.59,0,0,1,1.37-9.19C20,43.05,32.83,37.56,44.43,41c10.75,3.23,18.14,15.71,13.69,26.58-2.57,6.28-3.72,11.12,2,16,1.55,1.32,5.33,3.31,5.31,5.65,0,3.07-6-.65-6.72-1.19,0.77,1.34,8.37,9.27,3.53,9.83-4.45.52-8.39-5.7-11.06-8.37C46.69,85.07,47.47,95,47.45,97c0,3.24-2.32,9.8-6.42,5.52C37.64,99,38.92,93.42,36.56,89.5c-2.58-4.29-6.88,4.29-7.95,5.86-1.2,1.75-7.2,10.25-9.58,5.72-1.94-3.67,1.16-9.43,2.68-12.76-0.56,1.21-4.49,3-5.64,3.57a15.3,15.3,0,0,1-8.15,1.88c-6-.43-1.41-3.64,1.05-5.23H9Z"/><path class="cls-3" d="M37.37,40a24.52,24.52,0,0,1,7.05,1c10.75,3.23,18.14,15.71,13.69,26.58-2.57,6.28-3.72,11.12,2,16,1.55,1.32,5.33,3.31,5.31,5.65a1.08,1.08,0,0,1-1.23,1.2c-1.8,0-5-2-5.5-2.39,0.77,1.34,8.37,9.27,3.53,9.83a4.55,4.55,0,0,1-.53,0c-4.24,0-8-5.84-10.54-8.4a3.12,3.12,0,0,0-2-1.15c-2.28,0-1.76,7-1.78,8.64,0,2.48-1.38,6.93-3.86,6.93a3.72,3.72,0,0,1-2.56-1.4C37.64,99,38.92,93.42,36.56,89.5a2,2,0,0,0-1.68-1.19c-2.46,0-5.4,5.79-6.27,7.05s-4.93,7-7.72,7A2.07,2.07,0,0,1,19,101.09c-1.94-3.67,1.16-9.43,2.68-12.76-0.56,1.21-4.49,3-5.64,3.57a15.8,15.8,0,0,1-7.21,1.91q-0.47,0-.95,0c-5.94-.43-1.57-3.53.92-5.14l0.38-.24L9,88.55c4.82-3.1,10.48-8.42,8.33-14.69-1.17-3.41-2.79-6.34-3-10a22.59,22.59,0,0,1,1.37-9.19A22.86,22.86,0,0,1,37.37,40M9,88.55H9m0,0-0.13.08-0.09.06L9,88.56M37.37,38.14a24.36,24.36,0,0,0-25,25.8,24.92,24.92,0,0,0,2.11,7.89c0.34,0.86.55,1.75,0.86,2.64,1.86,5.44-3.71,10.26-7.71,12.6v0.09h0V87h0l0.1,0,0,0.06c-2.58,1.67-5.25,3.66-4.64,6s3.54,2.47,4.65,2.55c0.36,0,.73,0,1.09,0a17.47,17.47,0,0,0,8.06-2.11l0.54-.26,0.09,0c-1,2.91-1.54,6.08-.16,8.69a3.89,3.89,0,0,0,3.52,2.31c2.59,0,5.71-2.64,9.27-7.85,0.18-.27.4-0.64,0.68-1.11,2.24-3.76,3.38-4.87,3.94-5.09a1.83,1.83,0,0,1,.17.25,14.71,14.71,0,0,1,1.46,5.16c0.45,2.74,1,5.85,3.26,8.25a5.5,5.5,0,0,0,3.91,2c1.08,0,3.11-.47,4.55-3.62a13.54,13.54,0,0,0,1.18-5.16c0-.24,0-0.59,0-1a23.15,23.15,0,0,1,.27-5.44l0.28,0.27C50.4,91.42,51,92.16,51.71,93c2.62,3.07,5.89,6.88,10,6.88a6.45,6.45,0,0,0,.74,0,3.48,3.48,0,0,0,3-2.13c0.64-1.55,0-3.5-1.27-5.5h0a2.85,2.85,0,0,0,3.1-3c0-2.77-2.73-4.68-4.73-6.12-0.48-.34-0.94-0.64-1.24-0.9-4.55-3.88-4.14-7.4-1.49-13.86a20.42,20.42,0,0,0-.7-16.71A23.6,23.6,0,0,0,45,39.25a26.37,26.37,0,0,0-7.59-1.11h0Z"/><g class="cls-12"><path class="cls-13" d="M9,88.55c4.82-3.1,10.48-8.42,8.33-14.69-1.17-3.41-2.79-6.34-3-10a22.59,22.59,0,0,1,1.37-9.19C20,43.05,32.83,37.56,44.43,41c10.75,3.23,18.14,15.71,13.69,26.58-2.57,6.28-3.72,11.12,2,16,1.55,1.32,5.33,3.31,5.31,5.65,0,3.07-6-.65-6.72-1.19,0.77,1.34,8.37,9.27,3.53,9.83-4.45.52-8.39-5.7-11.06-8.37C46.69,85.07,47.47,95,47.45,97c0,3.24-2.32,9.8-6.42,5.52C37.64,99,38.92,93.42,36.56,89.5c-2.58-4.29-6.88,4.29-7.95,5.86-1.2,1.75-7.2,10.25-9.58,5.72-1.94-3.67,1.16-9.43,2.68-12.76-0.56,1.21-4.49,3-5.64,3.57a15.3,15.3,0,0,1-8.15,1.88c-6-.43-1.41-3.64,1.05-5.23H9Z"/></g><polygon class="cls-3" points="47.41 74.32 25.78 74.32 36.77 86.83 36.94 86.83 47.41 74.32"/><path class="cls-13" d="M31.78,74.57a0.72,0.72,0,0,1,.54-0.29h8.23a0.62,0.62,0,0,1,.51.31l0.12,0.24a0.42,0.42,0,0,1-.13.51l-3.39,2.38a1.24,1.24,0,0,1-.63.19l-1.11,0a1.42,1.42,0,0,1-.64-0.2l-3.55-2.39a0.36,0.36,0,0,1-.1-0.49Z"/><path class="cls-13" d="M37.48,77.71a0.46,0.46,0,0,0-.42-0.34H35.83a0.46,0.46,0,0,0-.42.34l-1.73,7.86a0.64,0.64,0,0,0,.19.57l2.31,2a0.42,0.42,0,0,0,.53,0l2.31-2a0.64,0.64,0,0,0,.19-0.57Z"/><path class="cls-3" d="M22.6,74.13c0.08-.12,3.81-1.37,3.81-1.37a1.55,1.55,0,0,1,.67,0l7.18,1.45a0.23,0.23,0,0,1,.16.37l-2,3.32a0.47,0.47,0,0,1-.51.2S22,75.07,22.6,74.13Z"/><path class="cls-14" d="M22.6,74.13c0.08-.12,3.81-1.37,3.81-1.37a1.55,1.55,0,0,1,.67,0l7.18,1.45a0.23,0.23,0,0,1,.16.37l-2,3.32a0.47,0.47,0,0,1-.51.2S22,75.07,22.6,74.13Z"/><path class="cls-13" d="M49.17,73.61c1.4,0,7.49-2.14,7.49-2.14l-1.45,8.79-18.68,9L35.28,88S45.92,75.14,46.93,73.4C47.74,73.4,48.16,73.61,49.17,73.61Z"/><path class="cls-3" d="M49.3,74.26c-0.08-.12-2.44-1.32-2.44-1.32a1.21,1.21,0,0,0-.65-0.1L38.8,74.17a0.23,0.23,0,0,0-.17.36l2,3.32a0.46,0.46,0,0,0,.51.19S49.92,75.2,49.3,74.26Z"/><path class="cls-14" d="M49.3,74.26c-0.08-.12-2.44-1.32-2.44-1.32a1.21,1.21,0,0,0-.65-0.1L38.8,74.17a0.23,0.23,0,0,0-.17.36l2,3.32a0.46,0.46,0,0,0,.51.19S49.92,75.2,49.3,74.26Z"/><path class="cls-13" d="M24.81,73.4a56.67,56.67,0,0,0-6,.92L27,85.08,37.93,89l-0.29-.64S28.23,75.14,27.22,73.4H24.81Z"/><path class="cls-11" d="M26.36,72.59a1,1,0,0,1,.54.34l9.45,13.52c0.11,0.16.06,0.21-.1,0.11l-12.2-7.09a0.19,0.19,0,0,1,0-.36l2.73-1.65c0.16-.1.14-0.2,0-0.23l-3.55-.48a0.49,0.49,0,0,1-.39-0.39l-0.56-4.12a0.24,0.24,0,0,1,.3-0.29Z"/><path class="cls-11" d="M46.85,72.71a1,1,0,0,0-.55.34L36.45,86.49c-0.11.15-.07,0.2,0.1,0.11L49,79.47a0.19,0.19,0,0,0,0-.35l-2.73-1.65c-0.16-.1-0.14-0.2,0-0.23l3.55-.48a0.56,0.56,0,0,0,.43-0.38l1-4.13A0.21,0.21,0,0,0,51.08,72Z"/><circle class="cls-3" cx="10.73" cy="88.98" r="0.58"/><circle class="cls-3" cx="61.6" cy="86.17" r="0.58"/><circle class="cls-15" cx="27.76" cy="58.94" r="6.94"/><circle class="cls-15" cx="45.91" cy="58.94" r="6.94"/><path class="cls-13" d="M45.6,50.81a8.15,8.15,0,0,0-8,6.4h-2a8.17,8.17,0,1,0,.18,2h1.66A8.15,8.15,0,1,0,45.6,50.81ZM27.66,65.37a6.4,6.4,0,1,1,6.4-6.4A6.4,6.4,0,0,1,27.66,65.37Zm17.94,0A6.4,6.4,0,1,1,52,59,6.4,6.4,0,0,1,45.6,65.37Z"/><path class="cls-16" d="M24.61,57l-1-.64-0.12.19,1,0.64Z"/><path class="cls-16" d="M26,55.73l-0.58-1-0.2.11,0.58,1Z"/><path class="cls-16" d="M30.83,57.38L32,56.73l-0.11-.2-1.16.64Z"/><path class="cls-16" d="M24,58.9H22.79v0.22h1.26C24,59,24,59,24,58.9Z"/><path class="cls-16" d="M27.61,55.34h0.18V54.13H27.56v1.21h0Z"/><path class="cls-16" d="M29.68,56l0.67-1.08-0.19-.12-0.67,1.07Z"/><path class="cls-16" d="M24.5,60.65l-1.15.64,0.11,0.2,1.16-.65Z"/><path class="cls-16" d="M30.54,60.92l1.23,0.76,0.12-.19-1.22-.76Z"/><path class="cls-16" d="M31.17,58.9c0,0.08,0,.15,0,0.22h1.4V58.9H31.17Z"/><path class="cls-16" d="M29.25,62.06L30,63.33l0.2-.11L29.44,62Z"/><path class="cls-16" d="M25.73,61.93L25,63.1l0.19,0.12L25.93,62Z"/><path class="cls-16" d="M27.61,62.46h0V63.9h0.22V62.46H27.61Z"/><polygon class="cls-17" points="28.67 60.36 28.48 60.46 27.11 58.22 27.31 58.12 28.67 60.36"/><rect class="cls-17" x="27.55" y="58.02" width="0.22" height="3.45"/><text class="cls-18" transform="translate(42.36 57.51)">€</text><path class="cls-13" d="M50,59.21A0.25,0.25,0,0,1,49.78,59a4.09,4.09,0,0,0-4.08-4.08,0.25,0.25,0,0,1,0-.5A4.59,4.59,0,0,1,50.28,59,0.25,0.25,0,0,1,50,59.21Z"/><path class="cls-13" d="M45.69,63.55A4.59,4.59,0,0,1,41.11,59a0.25,0.25,0,0,1,.5,0A4.09,4.09,0,0,0,45.69,63,0.25,0.25,0,0,1,45.69,63.55Z"/><path class="cls-19" d="M48,60.93c-0.29-.09-0.36-0.13-0.36-0.26s0.2-.16.32-0.16a0.66,0.66,0,0,1,.33.09,0.07,0.07,0,0,0,.09,0l0.15-.23a0.07,0.07,0,0,0,0-.09,1,1,0,0,0-.4-0.14V60a0.07,0.07,0,0,0-.07-0.07H47.78a0.07,0.07,0,0,0-.07.07v0.16a0.56,0.56,0,0,0-.46.54,0.71,0.71,0,0,0,.65.65c0.28,0.08.33,0.12,0.33,0.23s-0.19.15-.3,0.15a0.56,0.56,0,0,1-.38-0.15l0,0,0,0-0.2.19a0.07,0.07,0,0,0,0,.1,0.93,0.93,0,0,0,.46.26v0.16a0.07,0.07,0,0,0,.07.07h0.27a0.07,0.07,0,0,0,.07-0.07V62.09a0.56,0.56,0,0,0,.52-0.54A0.68,0.68,0,0,0,48,60.93Z"/><path class="cls-19" d="M48,58.75a2.37,2.37,0,1,0,2.37,2.37A2.37,2.37,0,0,0,48,58.75ZM48,63a1.89,1.89,0,1,1,1.89-1.89A1.89,1.89,0,0,1,48,63Z"/><path class="cls-19" d="M43.29,54.14a2.37,2.37,0,1,0,2.37,2.37A2.37,2.37,0,0,0,43.29,54.14Zm0,4.26a1.89,1.89,0,1,1,1.89-1.89A1.89,1.89,0,0,1,43.29,58.4Z"/><path class="cls-13" d="M46.62,55.81a0.25,0.25,0,0,1-.18-0.07l-0.93-.93a0.25,0.25,0,0,1,0-.35l0.91-.91a0.25,0.25,0,0,1,.35.35L46,54.63l0.75,0.75A0.25,0.25,0,0,1,46.62,55.81Z"/><path class="cls-13" d="M44.79,64.46A0.25,0.25,0,0,1,44.61,64l0.73-.73-0.75-.75a0.25,0.25,0,1,1,.35-0.35l0.93,0.93a0.25,0.25,0,0,1,0,.35L45,64.39A0.25,0.25,0,0,1,44.79,64.46Z"/><path class="cls-9" d="M180.76,62.41a2.58,2.58,0,0,1-.91,2.12,4,4,0,0,1-2.58.74h-0.92v3.3h-1.44V59.74h2.54a3.85,3.85,0,0,1,2.48.68A2.43,2.43,0,0,1,180.76,62.41Zm-4.4,1.64h0.77a2.75,2.75,0,0,0,1.63-.39,1.41,1.41,0,0,0,.52-1.21,1.37,1.37,0,0,0-.47-1.14,2.3,2.3,0,0,0-1.45-.37h-1v3.11Z"/><path class="cls-9" d="M184,65v3.53h-1.44V59.74H185a4.1,4.1,0,0,1,2.53.64,2.3,2.3,0,0,1,.82,1.93,2.42,2.42,0,0,1-1.72,2.35l2.5,3.91H187.5L185.39,65H184Zm0-1.2h1a2.29,2.29,0,0,0,1.46-.37,1.36,1.36,0,0,0,.45-1.11,1.2,1.2,0,0,0-.49-1.08,2.68,2.68,0,0,0-1.47-.33h-1v2.89Z"/><path class="cls-9" d="M198.27,64.15a4.83,4.83,0,0,1-1.08,3.35,4.53,4.53,0,0,1-6.13,0A4.86,4.86,0,0,1,190,64.13a4.79,4.79,0,0,1,1.08-3.36,4,4,0,0,1,3.08-1.17,3.89,3.89,0,0,1,3,1.19A4.83,4.83,0,0,1,198.27,64.15Zm-6.74,0a4,4,0,0,0,.66,2.47,2.68,2.68,0,0,0,3.89,0,5,5,0,0,0,0-4.95,2.3,2.3,0,0,0-1.94-.84,2.34,2.34,0,0,0-2,.84A3.92,3.92,0,0,0,191.53,64.15Z"/><path class="cls-9" d="M207.35,64.07a4.4,4.4,0,0,1-1.21,3.34,4.88,4.88,0,0,1-3.5,1.16h-2.47V59.74h2.73a4.52,4.52,0,0,1,3.28,1.14A4.24,4.24,0,0,1,207.35,64.07Zm-1.52,0q0-3.17-3-3.17h-1.25v6.41h1Q205.83,67.36,205.83,64.12Z"/></svg>