<svg id="Option_3" data-name="Option 3" xmlns="http://www.w3.org/2000/svg" xmlns:xlink="http://www.w3.org/1999/xlink" viewBox="0 0 382 130"><defs><style>.cls-1,.cls-10,.cls-14,.cls-2,.cls-7{fill:none;}.cls-1{clip-rule:evenodd;}.cls-17,.cls-18,.cls-19,.cls-21,.cls-3{fill:#fff;}.cls-20,.cls-4{fill:#54ab54;}.cls-5{clip-path:url(#clip-path);}.cls-6{opacity:0.5;}.cls-10,.cls-14,.cls-7{stroke:#009ada;}.cls-10,.cls-16,.cls-17,.cls-7{stroke-linecap:round;stroke-linejoin:round;}.cls-7{stroke-width:2.2px;stroke-dasharray:3.52 6.17;}.cls-8{fill:#0b9ad6;}.cls-9{fill:#012639;}.cls-10{stroke-width:4.38px;}.cls-11{fill:#009ada;}.cls-12{clip-path:url(#clip-path-2);}.cls-13,.cls-16{fill:#1a2e3e;}.cls-14,.cls-20{stroke-miterlimit:10;}.cls-14{stroke-width:0.35px;}.cls-15{fill:#5ab1e3;}.cls-16{stroke:#1a2e3e;stroke-width:0.35px;}.cls-17,.cls-20{stroke:#fff;}.cls-17{stroke-width:0.34px;}.cls-18{font-size:2.94px;font-family:Arial;font-weight:700;}.cls-19{fill-rule:evenodd;}.cls-20{stroke-width:1.01px;}.cls-21{font-size:17.15px;font-family:FontAwesome;}</style><clipPath id="clip-path"><polygon class="cls-1" points="172.19 110.59 13.08 110.59 13.08 60.53 160.44 60.53 189.51 90.3 172.19 110.59"/></clipPath><clipPath id="clip-path-2"><polygon class="cls-2" points="7.31 88.66 13.37 94.71 16.62 93.08 14.99 102.16 42.46 112.4 60.73 105.06 65.38 100.41 65.97 97.5 61.54 90.87 60.38 90.05 64.92 85.52 57.67 70.97 45.8 73.59 41.09 75.42 28.73 75.27 26.63 73.3 13.86 70.88 7.31 88.66"/></clipPath></defs><title>pipeline</title><rect class="cls-3" x="82.71" y="36.2" width="31.83" height="21.03"/><path class="cls-4" d="M78.46,29.78v34.6h41.87V29.78H78.46ZM91.1,51.55H89l-2.51-6.89h2.32l0.93,3.2a15.92,15.92,0,0,1,.39,1.67h0c0.11-.56.23-1.08,0.38-1.67l0.89-3.2h2.25Zm8.09,0H97.12V44.3h0l-1.75.83L95,43.52l2.42-1.13h1.78v9.15Zm4.38,0.16h0a1.3,1.3,0,1,1,1.28-1.3,1.23,1.23,0,0,1-1.28,1.3Zm5,0a5.42,5.42,0,0,1-2.72-.65l0.44-1.61a5.06,5.06,0,0,0,2.13.56c1.11,0,1.68-.53,1.68-1.22,0-.9-0.9-1.31-1.85-1.31h-0.87V45.94h0.83c0.72,0,1.63-.28,1.63-1.06,0-.55-0.45-1-1.35-1a4.19,4.19,0,0,0-1.91.55l-0.44-1.55a5.73,5.73,0,0,1,2.83-.69c2,0,3,1,3,2.28a2.19,2.19,0,0,1-1.68,2.13v0a2.27,2.27,0,0,1,2,2.23C112.28,50.52,110.86,51.7,108.53,51.7Z"/><g class="cls-5"><g class="cls-6"><path class="cls-7" d="M206.76,80.77c0,5-4.32,9-9.6,9H44.76c-5.28,0-9.6-4-9.6-9s4.32-9,9.6-9h152.4C202.44,71.77,206.76,75.82,206.76,80.77Z"/></g><g class="cls-6"><path class="cls-8" d="M50,80.67a1.78,1.78,0,1,0-1.78,1.78A1.78,1.78,0,0,0,50,80.67Zm1.85,0A3.62,3.62,0,1,1,48.24,77,3.62,3.62,0,0,1,51.86,80.67Z"/><path class="cls-8" d="M87.71,80.67a1.78,1.78,0,1,0-1.78,1.78A1.78,1.78,0,0,0,87.71,80.67Zm1.85,0A3.62,3.62,0,1,1,85.94,77,3.62,3.62,0,0,1,89.56,80.67Z"/><path class="cls-8" d="M125.42,80.67a1.78,1.78,0,1,0-1.78,1.78A1.78,1.78,0,0,0,125.42,80.67Zm1.85,0A3.62,3.62,0,1,1,123.64,77,3.62,3.62,0,0,1,127.26,80.67Z"/><path class="cls-8" d="M163.12,80.67a1.78,1.78,0,1,0-1.78,1.78A1.78,1.78,0,0,0,163.12,80.67Zm1.85,0A3.62,3.62,0,1,1,161.34,77,3.62,3.62,0,0,1,165,80.67Z"/></g></g><rect class="cls-9" x="142.84" y="33.73" width="92.06" height="83.61" rx="6.47" ry="6.47"/><path class="cls-10" d="M158.54,101.65h21.15a8.89,8.89,0,0,0,8.86-8.86V81"/><path class="cls-10" d="M158.54,101.65h59.72"/><path class="cls-10" d="M219.2,101.65H198a8.89,8.89,0,0,1-8.86-8.86V81"/><rect class="cls-3" x="148.69" y="52.05" width="80.35" height="21.89" rx="8.86" ry="8.86"/><path class="cls-11" d="M8.67,88.93c4.82-3.1,10.48-8.42,8.33-14.69-1.17-3.41-2.79-6.34-3-10A22.59,22.59,0,0,1,15.37,55c4.32-11.59,17.16-17.08,28.76-13.6C54.88,44.65,62.27,57.13,57.82,68c-2.57,6.28-3.72,11.12,2,16,1.55,1.32,5.33,3.31,5.31,5.65,0,3.07-6-.65-6.72-1.19,0.77,1.34,8.37,9.27,3.53,9.83-4.45.52-8.39-5.7-11.06-8.37-4.5-4.49-3.71,5.44-3.73,7.49,0,3.24-2.32,9.8-6.42,5.52-3.39-3.53-2.11-9.15-4.46-13.07-2.58-4.29-6.88,4.29-7.95,5.86-1.2,1.75-7.2,10.25-9.58,5.72C16.8,97.79,19.89,92,21.41,88.7c-0.56,1.21-4.49,3-5.64,3.57a15.3,15.3,0,0,1-8.15,1.88c-6-.43-1.41-3.64,1.05-5.23h0Z"/><path class="cls-3" d="M37.08,40.38a24.51,24.51,0,0,1,7.05,1C54.88,44.65,62.27,57.13,57.82,68c-2.57,6.28-3.72,11.12,2,16,1.55,1.32,5.33,3.31,5.31,5.65a1.08,1.08,0,0,1-1.23,1.2c-1.8,0-5-2-5.5-2.39,0.77,1.34,8.37,9.27,3.53,9.83a4.55,4.55,0,0,1-.53,0c-4.24,0-8-5.84-10.54-8.4a3.12,3.12,0,0,0-2-1.15c-2.28,0-1.76,7-1.78,8.64,0,2.48-1.38,6.93-3.86,6.93a3.72,3.72,0,0,1-2.56-1.4c-3.39-3.53-2.11-9.15-4.46-13.07a2,2,0,0,0-1.68-1.19c-2.46,0-5.4,5.79-6.27,7.05s-4.93,7-7.72,7a2.07,2.07,0,0,1-1.86-1.31C16.8,97.79,19.89,92,21.41,88.7c-0.55,1.21-4.49,3-5.64,3.57a15.81,15.81,0,0,1-7.21,1.91q-0.47,0-.95,0c-5.94-.43-1.57-3.53.92-5.14l0.38-.24-0.24.16c4.82-3.1,10.48-8.42,8.33-14.69-1.17-3.41-2.79-6.34-3-10A22.59,22.59,0,0,1,15.37,55,22.86,22.86,0,0,1,37.08,40.38M8.67,88.93L8.54,89l-0.08.05,0.22-.14m28.4-50.41a24.36,24.36,0,0,0-25,25.8,24.92,24.92,0,0,0,2.11,7.89c0.34,0.86.69,1.75,1,2.64C17.1,80.28,11.29,85,7.66,87.35h0l0,0-0.09.06c-2.58,1.67-5.28,3.66-4.67,6S6.38,95.94,7.49,96c0.36,0,.72,0,1.08,0a17.45,17.45,0,0,0,8.05-2.11l0.53-.26,0.08,0c-1,2.91-1.54,6.08-.16,8.69a3.89,3.89,0,0,0,3.52,2.31c2.59,0,5.71-2.64,9.27-7.85,0.18-.27.4-0.64,0.68-1.11,2.24-3.76,3.38-4.87,3.94-5.09a1.83,1.83,0,0,1,.17.25A14.71,14.71,0,0,1,36.12,96c0.45,2.74,1,5.85,3.26,8.25a5.5,5.5,0,0,0,3.91,2c1.08,0,3.11-.47,4.55-3.62A13.54,13.54,0,0,0,49,97.44c0-.24,0-0.59,0-1A23.16,23.16,0,0,1,49.28,91l0.28,0.27c0.54,0.54,1.17,1.28,1.85,2.07,2.62,3.07,5.89,6.88,10,6.88a6.44,6.44,0,0,0,.74,0,3.44,3.44,0,0,0,3-2.07c0.64-1.55,0-3.44-1.27-5.44h0a2.9,2.9,0,0,0,3.1-3c0-2.77-2.73-4.72-4.73-6.15-0.48-.34-0.94-0.66-1.24-0.91-4.55-3.88-4.14-7.41-1.49-13.86A20.43,20.43,0,0,0,58.85,52,23.6,23.6,0,0,0,44.67,39.63a26.37,26.37,0,0,0-7.59-1.12h0Z"/><g class="cls-12"><path class="cls-13" d="M8.67,88.93c4.82-3.1,10.48-8.42,8.33-14.69-1.17-3.41-2.79-6.34-3-10A22.59,22.59,0,0,1,15.37,55c4.32-11.59,17.16-17.08,28.76-13.6C54.88,44.65,62.27,57.13,57.82,68c-2.57,6.28-3.72,11.12,2,16,1.55,1.32,5.33,3.31,5.31,5.65,0,3.07-6-.65-6.72-1.19,0.77,1.34,8.37,9.27,3.53,9.83-4.45.52-8.39-5.7-11.06-8.37-4.5-4.49-3.71,5.44-3.73,7.49,0,3.24-2.32,9.8-6.42,5.52-3.39-3.53-2.11-9.15-4.46-13.07-2.58-4.29-6.88,4.29-7.95,5.86-1.2,1.75-7.2,10.25-9.58,5.72C16.8,97.79,19.89,92,21.41,88.7c-0.56,1.21-4.49,3-5.64,3.57a15.3,15.3,0,0,1-8.15,1.88c-6-.43-1.41-3.64,1.05-5.23h0Z"/></g><polygon class="cls-3" points="47.1 74.69 25.48 74.69 36.47 87.2 36.64 87.2 47.1 74.69"/><path class="cls-13" d="M31.48,74.94A0.72,0.72,0,0,1,32,74.65h8.23a0.62,0.62,0,0,1,.51.31l0.12,0.24a0.42,0.42,0,0,1-.13.51L37.37,78.1a1.24,1.24,0,0,1-.63.19l-1.11,0a1.42,1.42,0,0,1-.64-0.2l-3.55-2.39a0.36,0.36,0,0,1-.1-0.49Z"/><path class="cls-13" d="M37.18,78.08a0.46,0.46,0,0,0-.42-0.34H35.53a0.46,0.46,0,0,0-.42.34l-1.73,7.86a0.64,0.64,0,0,0,.19.57l2.31,2a0.42,0.42,0,0,0,.53,0l2.31-2a0.64,0.64,0,0,0,.19-0.57Z"/><path class="cls-3" d="M22.3,74.5c0.08-.12,3.81-1.37,3.81-1.37a1.55,1.55,0,0,1,.67,0L34,74.54a0.23,0.23,0,0,1,.16.37l-2,3.32a0.47,0.47,0,0,1-.51.2S21.68,75.44,22.3,74.5Z"/><path class="cls-14" d="M22.3,74.5c0.08-.12,3.81-1.37,3.81-1.37a1.55,1.55,0,0,1,.67,0L34,74.54a0.23,0.23,0,0,1,.16.37l-2,3.32a0.47,0.47,0,0,1-.51.2S21.68,75.44,22.3,74.5Z"/><path class="cls-13" d="M48.87,74c1.4,0,7.49-2.14,7.49-2.14l-1.45,8.79-18.68,9L35,88.37S45.62,75.52,46.63,73.77C47.44,73.77,47.86,74,48.87,74Z"/><path class="cls-3" d="M49,74.63c-0.08-.12-2.44-1.32-2.44-1.32a1.21,1.21,0,0,0-.65-0.1L38.5,74.54a0.23,0.23,0,0,0-.17.36l2,3.32a0.46,0.46,0,0,0,.51.19S49.62,75.58,49,74.63Z"/><path class="cls-14" d="M49,74.63c-0.08-.12-2.44-1.32-2.44-1.32a1.21,1.21,0,0,0-.65-0.1L38.5,74.54a0.23,0.23,0,0,0-.17.36l2,3.32a0.46,0.46,0,0,0,.51.19S49.62,75.58,49,74.63Z"/><path class="cls-13" d="M24.51,73.77a56.67,56.67,0,0,0-6,.92l8.26,10.76,10.88,3.9-0.29-.64s-9.41-13.2-10.42-14.94H24.51Z"/><path class="cls-11" d="M26.06,73a1,1,0,0,1,.54.34l9.45,13.52c0.11,0.16.06,0.21-.1,0.11l-12.2-7.09a0.19,0.19,0,0,1,0-.36l2.73-1.65c0.16-.1.14-0.2,0-0.23l-3.55-.48a0.49,0.49,0,0,1-.39-0.39l-0.56-4.12a0.24,0.24,0,0,1,.3-0.29Z"/><path class="cls-11" d="M46.56,73.08a1,1,0,0,0-.55.34L36.15,86.86c-0.11.15-.07,0.2,0.1,0.11L48.7,79.84a0.19,0.19,0,0,0,0-.35L46,77.84c-0.16-.1-0.14-0.2,0-0.23l3.55-.48A0.56,0.56,0,0,0,50,76.75l1-4.13a0.21,0.21,0,0,0-.26-0.28Z"/><circle class="cls-3" cx="10.43" cy="89.36" r="0.58"/><circle class="cls-3" cx="61.3" cy="86.55" r="0.58"/><circle class="cls-15" cx="27.46" cy="59.32" r="6.94"/><circle class="cls-15" cx="45.61" cy="59.32" r="6.94"/><path class="cls-13" d="M45.3,51.19a8.15,8.15,0,0,0-8,6.4h-2a8.17,8.17,0,1,0,.18,2h1.66A8.15,8.15,0,1,0,45.3,51.19ZM27.36,65.74a6.4,6.4,0,1,1,6.4-6.4A6.4,6.4,0,0,1,27.36,65.74Zm17.94,0a6.4,6.4,0,1,1,6.4-6.4A6.4,6.4,0,0,1,45.3,65.74Z"/><path class="cls-16" d="M24.31,57.35l-1-.64-0.12.19,1,0.64Z"/><path class="cls-16" d="M25.68,56.11l-0.58-1-0.2.11,0.58,1Z"/><path class="cls-16" d="M30.53,57.76l1.17-.65-0.11-.2-1.16.64Z"/><path class="cls-16" d="M23.75,59.27H22.49V59.5h1.26C23.75,59.42,23.75,59.35,23.75,59.27Z"/><path class="cls-16" d="M27.31,55.71h0.18V54.5H27.26v1.21h0Z"/><path class="cls-16" d="M29.38,56.37L30,55.29l-0.19-.12-0.67,1.07Z"/><path class="cls-16" d="M24.2,61l-1.15.64,0.11,0.2,1.16-.65Z"/><path class="cls-16" d="M30.24,61.29l1.23,0.76,0.12-.19-1.22-.76Z"/><path class="cls-16" d="M30.87,59.27c0,0.08,0,.15,0,0.22h1.4V59.27H30.87Z"/><path class="cls-16" d="M28.95,62.44l0.71,1.27,0.2-.11-0.71-1.27Z"/><path class="cls-16" d="M25.43,62.3L24.7,63.48l0.19,0.12,0.73-1.18Z"/><path class="cls-16" d="M27.31,62.83h0v1.43h0.22V62.83H27.31Z"/><polygon class="cls-17" points="28.37 60.73 28.18 60.83 26.81 58.59 27.01 58.49 28.37 60.73"/><rect class="cls-17" x="27.25" y="58.39" width="0.22" height="3.45"/><text class="cls-18" transform="translate(42.06 57.88)">€</text><path class="cls-13" d="M49.73,59.59a0.25,0.25,0,0,1-.25-0.25,4.09,4.09,0,0,0-4.08-4.08,0.25,0.25,0,0,1,0-.5A4.59,4.59,0,0,1,50,59.34,0.25,0.25,0,0,1,49.73,59.59Z"/><path class="cls-13" d="M45.4,63.92a4.59,4.59,0,0,1-4.58-4.58,0.25,0.25,0,0,1,.5,0,4.09,4.09,0,0,0,4.08,4.08A0.25,0.25,0,1,1,45.4,63.92Z"/><path class="cls-19" d="M47.72,61.3c-0.29-.09-0.36-0.13-0.36-0.26s0.2-.16.32-0.16A0.66,0.66,0,0,1,48,61a0.07,0.07,0,0,0,.09,0l0.15-.23a0.07,0.07,0,0,0,0-.09,1,1,0,0,0-.4-0.14V60.35a0.07,0.07,0,0,0-.07-0.07H47.48a0.07,0.07,0,0,0-.07.07v0.16A0.56,0.56,0,0,0,47,61a0.71,0.71,0,0,0,.65.65c0.28,0.08.33,0.12,0.33,0.23s-0.19.15-.3,0.15a0.56,0.56,0,0,1-.38-0.15l0,0,0,0-0.2.19a0.07,0.07,0,0,0,0,.1,0.93,0.93,0,0,0,.46.26v0.16a0.07,0.07,0,0,0,.07.07h0.27a0.07,0.07,0,0,0,.07-0.07V62.47a0.56,0.56,0,0,0,.52-0.54A0.68,0.68,0,0,0,47.72,61.3Z"/><path class="cls-19" d="M47.66,59.12A2.37,2.37,0,1,0,50,61.49,2.37,2.37,0,0,0,47.66,59.12Zm0,4.26a1.89,1.89,0,1,1,1.89-1.89A1.89,1.89,0,0,1,47.66,63.38Z"/><path class="cls-19" d="M43,54.51a2.37,2.37,0,1,0,2.37,2.37A2.37,2.37,0,0,0,43,54.51Zm0,4.26a1.89,1.89,0,1,1,1.89-1.89A1.89,1.89,0,0,1,43,58.77Z"/><path class="cls-13" d="M46.32,56.18a0.25,0.25,0,0,1-.18-0.07l-0.93-.93a0.25,0.25,0,0,1,0-.35l0.91-.91a0.25,0.25,0,0,1,.35.35L45.75,55l0.75,0.75A0.25,0.25,0,0,1,46.32,56.18Z"/><path class="cls-13" d="M44.49,64.84a0.25,0.25,0,0,1-.18-0.43L45,63.68l-0.75-.75a0.25,0.25,0,0,1,.35-0.35l0.93,0.93a0.25,0.25,0,0,1,0,.35l-0.91.91A0.25,0.25,0,0,1,44.49,64.84Z"/><circle class="cls-20" cx="234.36" cy="35.17" r="15.36"/><text class="cls-21" transform="translate(225.13 41.31)"></text><path class="cls-9" d="M184.33,59.08v5.74a3.4,3.4,0,0,1-.42,1.72,2.81,2.81,0,0,1-1.22,1.13,4.24,4.24,0,0,1-1.91.4,3.57,3.57,0,0,1-2.57-.87,3.16,3.16,0,0,1-.92-2.4V59.08h1.46v5.61a2.24,2.24,0,0,0,.51,1.62,2.1,2.1,0,0,0,1.57.52,1.86,1.86,0,0,0,2.05-2.15v-5.6h1.45Z"/><path class="cls-9" d="M192.11,67.95l-0.89-2.46h-3.39L187,67.95h-1.53L188.75,59h1.58l3.32,8.91h-1.54Zm-1.27-3.71L190,61.82q-0.09-.24-0.25-0.76t-0.22-.76a13.63,13.63,0,0,1-.48,1.63l-0.8,2.31h2.58Z"/><path class="cls-9" d="M197.88,67.95h-1.45V60.32h-2.61V59.08h6.67v1.24h-2.61v7.63Z"/></svg>