<svg width="800" height="355" xmlns="http://www.w3.org/2000/svg" xmlns:xlink="http://www.w3.org/1999/xlink"><defs><path id="a" d="M0 0h127.374v71.508H0z"/></defs><g fill="none" fill-rule="evenodd"><text font-family="Roboto-Medium, Roboto" font-size="16" font-weight="400" fill="#0F2535" transform="translate(0 96.013)"><tspan x="7.458" y="177.973">LOAD BALANCER</tspan></text><g transform="translate(4.034 96.013)"><path stroke="#1B2E3F" stroke-width="6.771" stroke-linecap="round" stroke-linejoin="round" d="M13.415 134.699h95.021M60.925 134.14v-24.592"/><circle stroke="#1B2E3F" stroke-width="6.771" fill="#FFF" fill-rule="nonzero" stroke-linecap="round" stroke-linejoin="round" cx="60.925" cy="134.699" r="8.384"/><path d="M53.03 71.541H3.153A3.152 3.152 0 010 68.391V41.157c0-1.74 1.411-3.15 3.152-3.15h115.546a3.152 3.152 0 013.153 3.15v27.234c0 1.74-1.412 3.15-3.153 3.15H53.031z" fill="#1B2E3F" fill-rule="nonzero"/><circle fill="#2F93E0" fill-rule="nonzero" cx="79.371" cy="54.774" r="3.354"/><circle fill="#FFF" fill-rule="nonzero" cx="92.786" cy="54.774" r="3.354"/><circle fill="#2F93E0" fill-rule="nonzero" cx="105.082" cy="54.774" r="3.354"/><path d="M53.03 33.535H3.153A3.152 3.152 0 010 30.383V3.153A3.152 3.152 0 013.152 0h115.546a3.152 3.152 0 013.153 3.152v27.23a3.152 3.152 0 01-3.153 3.153H53.031z" fill="#1B2E3F" fill-rule="nonzero"/><circle fill="#2F93E0" fill-rule="nonzero" cx="79.371" cy="16.768" r="3.354"/><circle fill="#2F93E0" fill-rule="nonzero" cx="92.786" cy="16.768" r="3.354"/><circle fill="#FFF" fill-rule="nonzero" cx="105.082" cy="16.768" r="3.354"/><path d="M53.03 109.548H3.153A3.152 3.152 0 010 106.397V79.163c0-1.74 1.411-3.15 3.152-3.15h115.546a3.152 3.152 0 013.153 3.15v27.234c0 1.74-1.412 3.15-3.153 3.15H53.031z" fill="#1B2E3F" fill-rule="nonzero"/><circle fill="#2F93E0" fill-rule="nonzero" cx="79.371" cy="92.78" r="3.354"/><circle fill="#FFF" fill-rule="nonzero" cx="92.786" cy="92.78" r="3.354"/><circle fill="#2F93E0" fill-rule="nonzero" cx="105.082" cy="92.78" r="3.354"/></g><text font-family="Roboto-Medium, Roboto" font-size="16" font-weight="400" fill="#0F2535" transform="translate(300.423 91.541)"><tspan x="11.27" y="177.973">OCTOPUS SERVER NODES</tspan></text><g fill="#0F2535"><path d="M429.063 107.638h-55.515a2.127 2.127 0 01-2.129-2.124c0-1.174.954-2.126 2.129-2.126h55.515a2.126 2.126 0 110 4.25m0 12.992h-55.515a2.126 2.126 0 110-4.25h55.515a2.126 2.126 0 110 4.25m-27.757 90.836c-6.362 0-11.538-5.168-11.538-11.52 0-6.352 5.176-11.521 11.538-11.521s11.537 5.169 11.537 11.521c0 6.352-5.175 11.52-11.537 11.52m35.262-119.925h-70.524a5.54 5.54 0 00-5.545 5.536v132.011a5.54 5.54 0 005.545 5.536h70.524a5.542 5.542 0 005.545-5.536V97.077a5.542 5.542 0 00-5.545-5.536"/><path d="M401.306 192.91c-3.886 0-7.046 3.156-7.046 7.036 0 3.88 3.16 7.036 7.046 7.036 3.885 0 7.046-3.155 7.046-7.036 0-3.88-3.161-7.037-7.046-7.037M343.957 198.69c-5.07 0-9.195-4.118-9.195-9.18 0-5.063 4.125-9.182 9.195-9.182s9.193 4.12 9.193 9.181c0 5.063-4.123 9.181-9.193 9.181zm12.002-72.388h-34.122a1.694 1.694 0 110-3.387h34.122v-6.965h-34.122a1.695 1.695 0 110-3.388h34.122v-9.44h-40.102a4.414 4.414 0 00-4.418 4.411v105.2a4.414 4.414 0 004.418 4.411h40.102v-90.842z"/><path d="M343.957 183.902c-3.098 0-5.616 2.516-5.616 5.607 0 3.093 2.518 5.608 5.616 5.608 3.096 0 5.615-2.515 5.615-5.608 0-3.091-2.519-5.607-5.615-5.607M458.203 198.69c5.006 0 9.075-4.118 9.075-9.18 0-5.063-4.07-9.18-9.075-9.18-5.005 0-9.077 4.117-9.077 9.18 0 5.062 4.072 9.18 9.077 9.18zm-11.85-72.388h33.687c.921 0 1.671-.757 1.671-1.693s-.75-1.694-1.671-1.694h-33.687v-6.965h33.687c.921 0 1.671-.758 1.671-1.694 0-.935-.75-1.693-1.671-1.693h-33.687v-9.441h39.587c2.41 0 4.363 1.974 4.363 4.411v105.2c0 2.437-1.953 4.412-4.363 4.412h-39.587v-90.843z"/><path d="M458.203 183.902c3.056 0 5.542 2.515 5.542 5.607s-2.486 5.609-5.542 5.609c-3.058 0-5.543-2.517-5.543-5.609s2.485-5.607 5.543-5.607"/></g><path d="M386.261 165.324c2.58-1.57 5.613-4.266 4.462-7.44-.627-1.731-1.494-3.213-1.611-5.084-.098-1.58.152-3.175.734-4.657 2.314-5.877 9.194-8.658 15.415-6.89 5.758 1.634 9.72 7.96 7.335 13.47-1.378 3.182-1.996 5.638 1.079 8.112.832.67 2.853 1.675 2.847 2.864-.01 1.559-3.24-.332-3.601-.602.41.68 4.485 4.696 1.891 4.982-2.385.265-4.495-2.889-5.928-4.241-2.408-2.275-1.989 2.757-2.002 3.796-.016 1.64-1.241 4.963-3.441 2.8-1.817-1.786-1.131-4.638-2.392-6.624-1.388-2.18-3.69 2.17-4.264 2.966-.644.888-3.858 5.194-5.135 2.902-1.037-1.86.62-4.78 1.436-6.464-.299.611-2.405 1.515-3.022 1.81-1.391.664-2.805 1.057-4.368.953-3.237-.221-.754-1.847.565-2.653.442-.267-.412.256 0 0zM447.001 162.162c1.691-1.083 3.678-2.942 2.924-5.132-.411-1.193-.98-2.215-1.056-3.506-.064-1.09.1-2.19.48-3.211 1.517-4.053 6.025-5.972 10.1-4.753 3.773 1.128 6.369 5.49 4.806 9.29-.903 2.195-1.308 3.888.707 5.595.545.462 1.87 1.155 1.865 1.975-.006 1.075-2.123-.229-2.36-.415.27.468 2.94 3.239 1.24 3.436-1.563.182-2.945-1.993-3.884-2.925-1.578-1.569-1.303 1.901-1.311 2.618-.011 1.132-.814 3.423-2.255 1.93-1.19-1.23-.741-3.198-1.567-4.567-.91-1.503-2.417 1.496-2.794 2.045-.422.613-2.528 3.583-3.364 2.001-.68-1.282.406-3.296.94-4.458-.195.422-1.575 1.046-1.98 1.249-.91.458-1.837.73-2.861.657-2.121-.153-.494-1.274.37-1.83.29-.184-.27.177 0 0zM335.212 162.162c1.69-1.083 3.677-2.942 2.923-5.132-.41-1.193-.98-2.215-1.056-3.506-.064-1.09.1-2.19.481-3.211 1.516-4.053 6.024-5.972 10.1-4.753 3.772 1.128 6.368 5.49 4.805 9.29-.903 2.195-1.307 3.888.707 5.595.545.462 1.87 1.155 1.865 1.975-.006 1.075-2.123-.229-2.359-.415.268.468 2.938 3.239 1.24 3.436-1.564.182-2.946-1.993-3.885-2.925-1.577-1.569-1.303 1.901-1.311 2.618-.01 1.132-.814 3.423-2.255 1.93-1.19-1.23-.741-3.198-1.567-4.567-.91-1.503-2.417 1.496-2.794 2.045-.421.613-2.527 3.583-3.364 2.001-.68-1.282.407-3.296.941-4.458-.196.422-1.576 1.046-1.98 1.249-.912.458-1.838.73-2.862.657-2.12-.153-.494-1.274.37-1.83.29-.184-.27.177 0 0z" fill="#0D80D8" fill-rule="nonzero"/><text font-family="Roboto-Medium, Roboto" font-size="16" font-weight="400" fill="#0F2535" transform="translate(678.879 20)"><tspan x="5.089" y="134.377">DATABASE</tspan></text><path d="M766.484 34.207v7.1c0 7.824-19.28 14.207-43.042 14.207-23.763 0-43.036-6.377-43.036-14.207v-7.1c0-7.824 19.28-14.207 43.042-14.207s43.036 6.383 43.036 14.207zm0 19.007v9.406c0 7.824-19.28 14.207-43.042 14.207-23.763 0-43.036-6.37-43.036-14.207v-9.436c9.243 6.438 26.17 9.436 43.036 9.436 16.865 0 33.792-2.998 43.042-9.436v.03zm0 21.314v9.418c0 7.823-19.28 14.206-43.042 14.206-23.763 0-43.036-6.395-43.036-14.206v-9.45c9.243 6.439 26.17 9.45 43.036 9.45 16.865 0 33.792-3.011 43.042-9.45v.032zm0 21.313v9.436c0 7.824-19.28 14.207-43.042 14.207-23.763 0-43.036-6.414-43.036-14.238V95.81c9.25 6.438 26.17 9.436 43.042 9.436 16.871 0 33.786-2.998 43.036-9.436v.03z" fill="#1B2E3F" fill-rule="nonzero"/><g><text font-family="Roboto-Medium, Roboto" font-size="16" font-weight="400" fill="#0F2535" transform="translate(647.585 196.536)"><tspan x="8.059" y="134.318">SHARED STORAGE</tspan></text><g transform="translate(661.018 196.536)"><mask id="b" fill="#fff"><use xlink:href="#a"/></mask><path d="M100.838 19.572c-1.243 0-2.464.116-3.663.282C92.387 8.219 80.76 0 67.17 0 55.938 0 46.05 5.61 40.249 14.12a20.8 20.8 0 00-2.97-.234c-10.593 0-19.281 7.937-20.222 18.071C7.394 33.486 0 41.674 0 51.577c0 10.99 9.093 19.895 20.315 19.895l5.523.004.45-28.224c1.919-2.895 6.01-5.189 12.233-6.854 6.785-1.814 15.724-2.815 25.167-2.815 9.442 0 18.38 1 25.167 2.815 6.22 1.665 10.312 3.96 12.231 6.854l.452 28.256c13.955-.769 25.836-12.087 25.836-25.944 0-14.351-11.873-25.992-26.536-25.992" fill="#1B2E3F" mask="url(#b)"/></g><path d="M733.009 290.105c0-1.099-.877-1.99-1.956-1.99-1.082 0-1.957.891-1.957 1.99 0 1.098.875 1.99 1.957 1.99 1.08 0 1.956-.892 1.956-1.99m-7.463 0c0-1.099-.878-1.99-1.958-1.99s-1.956.891-1.956 1.99c0 1.098.876 1.99 1.956 1.99s1.958-.892 1.958-1.99m-7.465 0c0-1.099-.876-1.99-1.956-1.99-1.081 0-1.958.891-1.958 1.99 0 1.098.877 1.99 1.958 1.99 1.08 0 1.956-.892 1.956-1.99m39.027-12.736v9.301c0 5.142-15.007 9.308-33.52 9.308-18.513 0-33.52-4.166-33.52-9.308v-9.3c1.971 1.632 5.009 3.024 9.103 4.161 6.557 1.821 15.229 2.824 24.417 2.824 9.188 0 17.86-1.003 24.417-2.824 4.094-1.137 7.132-2.529 9.103-4.162m-24.1-1.272c0-1.098-.876-1.989-1.955-1.989-1.082 0-1.957.891-1.957 1.99 0 1.098.875 1.99 1.957 1.99 1.08 0 1.956-.892 1.956-1.99m-7.463 0c0-1.099-.878-1.99-1.958-1.99s-1.956.891-1.956 1.99c0 1.098.876 1.99 1.956 1.99s1.958-.892 1.958-1.99m-7.465 0c0-1.099-.876-1.99-1.956-1.99-1.081 0-1.958.891-1.958 1.99 0 1.098.877 1.99 1.958 1.99 1.08 0 1.956-.892 1.956-1.99m39.027-12.956v9.3c0 5.142-15.007 9.31-33.52 9.31-18.513 0-33.52-4.168-33.52-9.31v-9.3c1.971 1.634 5.009 3.026 9.103 4.163 6.557 1.821 15.229 2.824 24.417 2.824 9.188 0 17.86-1.003 24.417-2.824 4.094-1.137 7.132-2.529 9.103-4.163m-24.1-1.052c0-1.098-.876-1.99-1.955-1.99-1.082 0-1.957.892-1.957 1.99 0 1.1.875 1.991 1.957 1.991 1.08 0 1.956-.891 1.956-1.99m-7.463 0c0-1.099-.878-1.99-1.958-1.99s-1.956.891-1.956 1.99.876 1.99 1.956 1.99 1.958-.891 1.958-1.99m-7.465 0c0-1.099-.876-1.99-1.956-1.99-1.081 0-1.958.891-1.958 1.99s.877 1.99 1.958 1.99c1.08 0 1.956-.891 1.956-1.99m39.027-13.176v9.3c0 5.142-15.007 9.309-33.52 9.309-18.513 0-33.52-4.167-33.52-9.31v-9.299c1.971 1.634 5.009 3.025 9.103 4.162 6.557 1.822 15.229 2.824 24.417 2.824 9.188 0 17.86-1.002 24.417-2.824 4.094-1.137 7.132-2.528 9.103-4.162m0-5.082c0 5.14-15.007 9.309-33.52 9.309-18.513 0-33.52-4.169-33.52-9.31 0-5.14 15.007-9.307 33.52-9.307 18.513 0 33.52 4.167 33.52 9.308" fill="#1B2E3F"/></g><g stroke="#0F2535" stroke-linecap="round" stroke-linejoin="round" stroke-width="2.235"><path d="M155.55 160.224h126.58M277.217 154.637l6.704 5.622-6.704 5.551M216.682 159.81l9.141-7.826a86.576 86.576 0 0156.306-20.81h0"/><path d="M277.217 125.587l6.704 5.621-6.704 5.552"/><g><path d="M216.682 160.223l9.141 7.827a86.576 86.576 0 0056.306 20.81h0"/><path d="M277.217 194.447l6.704-5.622-6.704-5.551"/></g></g><g stroke="#0F2535" stroke-linecap="round" stroke-linejoin="round" stroke-width="2.235"><path d="M511.974 160.224l60.773-.56"/></g><g stroke="#0F2535" stroke-linecap="round" stroke-linejoin="round" stroke-width="2.235"><path d="M573.107 160.223c.69 66.48 65.447 84.503 65.447 84.503M632.005 248.917l8.169-3.133-4.531-7.431"/></g><g stroke="#0F2535" stroke-linecap="round" stroke-linejoin="round" stroke-width="2.235"><path d="M573.107 159.48c.69-66.48 65.447-84.503 65.447-84.503M632.005 70.786l8.169 3.133-4.531 7.431"/></g></g></svg>