<svg xmlns='http://www.w3.org/2000/svg' viewBox='0 0 40 40'><path d="m2.415 4.375 11.807 9.238 10.744-9.176c.313-.25.687-.437 1.125-.437 1.186 0 2.061 1.186 1.749 2.31l-3.374 11.734h5.373c1.187 0 2.186.936 2.186 2.122 0 .687-.312 1.249-.812 1.686l-3.061 2.621 11.244 8.864c.687.5.812 1.435.25 2.06-.5.686-1.437.811-2.062.25L.605 6.683c-.687-.5-.812-1.436-.25-2.06.5-.686 1.437-.811 2.061-.25m14.243 11.11 4.435 3.496 2.749-9.675zm7.059 5.493 1.999 1.623 1.874-1.623zm-.312 7.49-8.371 7.116q-.468.375-1.125.374c-1.186 0-2.061-1.123-1.749-2.247l3.311-11.547 2.561 1.997-1.874 6.554 4.873-4.12zM9.599 17.545l5.622 4.432H10.1a2.08 2.08 0 0 1-2.061-2.06c0-.624.25-1.249.687-1.623z" /></svg>