<svg width="800" height="355" xmlns="http://www.w3.org/2000/svg" xmlns:xlink="http://www.w3.org/1999/xlink"><defs><path id="a" d="M0 0h127.374v71.508H0z"/></defs><g fill="none" fill-rule="evenodd"><path d="M15.755 273.986v-1.578h-5.164v-9.797H8.614v11.375h7.141zm5.39.156c.933 0 1.757-.225 2.473-.676.716-.45 1.267-1.096 1.653-1.937.385-.842.578-1.82.578-2.934v-.633c-.005-1.11-.203-2.082-.594-2.918-.39-.836-.944-1.476-1.66-1.922-.716-.445-1.538-.668-2.465-.668-.927 0-1.749.226-2.465.676-.716.45-1.27 1.1-1.664 1.95-.393.848-.59 1.828-.59 2.937v.64c.006 1.089.205 2.05.598 2.883.393.834.95 1.476 1.672 1.926.721.45 1.543.676 2.465.676zm0-1.625c-.864 0-1.54-.341-2.027-1.024-.487-.682-.73-1.648-.73-2.898v-.656c.01-1.224.256-2.17.738-2.84.482-.67 1.15-1.004 2.004-1.004.875 0 1.55.336 2.027 1.008.477.672.715 1.638.715 2.898v.594c0 1.281-.235 2.255-.707 2.922-.471.667-1.144 1-2.02 1zm7.548 1.469l.921-2.649h4.407l.93 2.649h2.062l-4.305-11.375h-1.773l-4.297 11.375h2.055zm4.773-4.243h-3.297l1.649-4.718 1.648 4.718zm8.11 4.243c1.025 0 1.936-.222 2.73-.664a4.526 4.526 0 001.836-1.891c.43-.818.644-1.766.644-2.844v-.57c0-1.063-.213-2.005-.64-2.828a4.581 4.581 0 00-1.809-1.906c-.779-.448-1.67-.672-2.676-.672h-3.36v11.375h3.274zm-.008-1.578h-1.29v-8.204h1.383c1.021 0 1.8.326 2.336.977.537.651.805 1.594.805 2.828v.633c-.01 1.213-.293 2.144-.848 2.793-.554.648-1.35.973-2.386.973zm15.32 1.578c1.276 0 2.256-.287 2.941-.86s1.028-1.393 1.028-2.46c0-.647-.168-1.2-.504-1.66-.336-.462-.811-.776-1.426-.942.542-.23.953-.552 1.234-.969.282-.417.422-.885.422-1.406 0-1.021-.336-1.79-1.008-2.305-.672-.516-1.65-.773-2.937-.773h-3.899v11.375h4.149zm-.235-6.586h-1.937v-3.196h1.922c.677 0 1.176.125 1.496.375.32.25.48.657.48 1.22 0 .51-.173.904-.52 1.183-.345.278-.826.418-1.44.418zm.258 5.008h-2.195v-3.555h2.36c1.208.026 1.812.63 1.812 1.812 0 .547-.175.974-.524 1.282-.349.307-.833.46-1.453.46zm6.961 1.578l.922-2.649H69.2l.93 2.649h2.063l-4.305-11.375h-1.774l-4.296 11.375h2.054zm4.774-4.243h-3.297l1.648-4.718 1.649 4.718zm11.976 4.243v-1.578h-5.164v-9.797h-1.976v11.375h7.14zm2.703 0l.922-2.649h4.406l.93 2.649h2.063L87.34 262.61h-1.773l-4.297 11.375h2.054zm4.774-4.243h-3.297l1.648-4.718 1.649 4.718zm6.812 4.243v-8.07l5.07 8.07h1.977V262.61h-1.96v8.101l-5.087-8.101h-1.976v11.375h1.976zm13.602.156c1.297 0 2.336-.34 3.117-1.02.781-.68 1.23-1.626 1.344-2.84h-1.969c-.104.813-.352 1.394-.742 1.743-.39.349-.974.523-1.75.523-.85 0-1.494-.323-1.934-.969-.44-.645-.66-1.583-.66-2.812v-1.008c.01-1.213.246-2.134.707-2.762.461-.627 1.121-.941 1.98-.941.74 0 1.301.18 1.684.543.383.362.621.952.715 1.77h1.969c-.125-1.245-.57-2.209-1.336-2.891-.766-.682-1.776-1.024-3.031-1.024-.933 0-1.754.222-2.465.664-.711.443-1.257 1.073-1.637 1.891-.38.818-.57 1.763-.57 2.836v1.063c.015 1.046.21 1.966.586 2.757.375.792.907 1.403 1.597 1.832.69.43 1.489.645 2.395.645zm13.664-.156v-1.578h-5.461v-3.5h4.672v-1.563h-4.672v-3.14h5.406v-1.594h-7.383v11.375h7.438zm3.586 0v-4.383h2.203l2.281 4.383h2.117v-.102l-2.554-4.742c.656-.276 1.168-.67 1.535-1.184.367-.513.55-1.15.55-1.91 0-1.114-.356-1.966-1.07-2.555-.713-.588-1.726-.882-3.039-.882h-4v11.375h1.977zm2.031-5.97h-2.031v-3.812h2.086c.687.01 1.204.183 1.55.516.347.333.52.805.52 1.414 0 .583-.187 1.043-.562 1.379-.375.336-.896.504-1.563.504z" fill="#0F2535" fill-rule="nonzero"/><g transform="translate(4.034 96.013)"><path stroke="#1B2E3F" stroke-width="6.771" stroke-linecap="round" stroke-linejoin="round" d="M13.415 134.699h95.021M60.925 134.14v-24.592"/><circle stroke="#1B2E3F" stroke-width="6.771" fill="#FFF" fill-rule="nonzero" stroke-linecap="round" stroke-linejoin="round" cx="60.925" cy="134.699" r="8.384"/><path d="M53.03 71.541H3.153A3.152 3.152 0 010 68.391V41.157c0-1.74 1.411-3.15 3.152-3.15h115.546a3.152 3.152 0 013.153 3.15v27.234c0 1.74-1.412 3.15-3.153 3.15H53.031z" fill="#1B2E3F" fill-rule="nonzero"/><circle fill="#2F93E0" fill-rule="nonzero" cx="79.371" cy="54.774" r="3.354"/><circle fill="#FFF" fill-rule="nonzero" cx="92.786" cy="54.774" r="3.354"/><circle fill="#2F93E0" fill-rule="nonzero" cx="105.082" cy="54.774" r="3.354"/><path d="M53.03 33.535H3.153A3.152 3.152 0 010 30.383V3.153A3.152 3.152 0 013.152 0h115.546a3.152 3.152 0 013.153 3.152v27.23a3.152 3.152 0 01-3.153 3.153H53.031z" fill="#1B2E3F" fill-rule="nonzero"/><circle fill="#2F93E0" fill-rule="nonzero" cx="79.371" cy="16.768" r="3.354"/><circle fill="#2F93E0" fill-rule="nonzero" cx="92.786" cy="16.768" r="3.354"/><circle fill="#FFF" fill-rule="nonzero" cx="105.082" cy="16.768" r="3.354"/><path d="M53.03 109.548H3.153A3.152 3.152 0 010 106.397V79.163c0-1.74 1.411-3.15 3.152-3.15h115.546a3.152 3.152 0 013.153 3.15v27.234c0 1.74-1.412 3.15-3.153 3.15H53.031z" fill="#1B2E3F" fill-rule="nonzero"/><circle fill="#2F93E0" fill-rule="nonzero" cx="79.371" cy="92.78" r="3.354"/><circle fill="#FFF" fill-rule="nonzero" cx="92.786" cy="92.78" r="3.354"/><circle fill="#2F93E0" fill-rule="nonzero" cx="105.082" cy="92.78" r="3.354"/></g><path d="M317.224 269.67c.932 0 1.756-.225 2.472-.675.717-.45 1.267-1.097 1.653-1.938.385-.84.578-1.819.578-2.933v-.633c-.005-1.11-.203-2.082-.594-2.918-.39-.836-.944-1.477-1.66-1.922-.716-.445-1.538-.668-2.465-.668-.927 0-1.749.225-2.465.676-.716.45-1.27 1.1-1.664 1.949-.393.849-.59 1.828-.59 2.938v.64c.006 1.089.205 2.05.598 2.883.393.833.95 1.475 1.672 1.926.721.45 1.543.676 2.465.676zm0-1.624c-.865 0-1.54-.342-2.028-1.024-.487-.682-.73-1.648-.73-2.898v-.657c.01-1.224.256-2.17.738-2.84.482-.669 1.15-1.003 2.004-1.003.875 0 1.55.336 2.027 1.007.477.672.715 1.639.715 2.899v.594c0 1.28-.235 2.255-.707 2.922-.471.666-1.144 1-2.02 1zm10.89 1.625c1.297 0 2.336-.34 3.118-1.02.78-.68 1.229-1.626 1.343-2.84h-1.968c-.105.813-.352 1.393-.743 1.742-.39.35-.974.524-1.75.524-.849 0-1.493-.323-1.933-.969-.44-.646-.66-1.583-.66-2.812v-1.008c.01-1.214.246-2.134.707-2.762.46-.628 1.12-.941 1.98-.941.74 0 1.3.18 1.684.543.382.362.62.951.715 1.77h1.968c-.125-1.246-.57-2.21-1.336-2.892-.765-.682-1.776-1.023-3.03-1.023-.933 0-1.755.221-2.466.664-.71.443-1.256 1.073-1.636 1.89-.38.818-.57 1.764-.57 2.837v1.062c.015 1.047.21 1.966.585 2.758s.908 1.402 1.598 1.832c.69.43 1.488.645 2.394.645zm10.672-.157v-9.781h3.547v-1.594h-9.023v1.594h3.515v9.781h1.961zm9.196.157c.932 0 1.756-.226 2.472-.676.716-.45 1.267-1.097 1.653-1.938.385-.84.578-1.819.578-2.933v-.633c-.006-1.11-.203-2.082-.594-2.918-.39-.836-.944-1.477-1.66-1.922-.716-.445-1.538-.668-2.465-.668-.927 0-1.749.225-2.465.676-.716.45-1.27 1.1-1.664 1.949-.393.849-.59 1.828-.59 2.938v.64c.005 1.089.205 2.05.598 2.883.393.833.95 1.475 1.672 1.926.721.45 1.543.676 2.465.676zm0-1.625c-.865 0-1.54-.342-2.028-1.024-.487-.682-.73-1.648-.73-2.898v-.657c.01-1.224.256-2.17.738-2.84.482-.669 1.15-1.003 2.004-1.003.875 0 1.55.336 2.027 1.007.477.672.715 1.639.715 2.899v.594c0 1.28-.236 2.255-.707 2.922-.471.666-1.144 1-2.02 1zm8.648 1.468v-4.226h2.352c1.317 0 2.342-.31 3.074-.93.732-.62 1.097-1.487 1.097-2.602 0-1.088-.373-1.963-1.12-2.625-.748-.661-1.757-.992-3.028-.992h-4.352v11.375h1.977zm2.375-5.812h-2.375v-3.969h2.43c.656.01 1.172.2 1.547.566.375.368.562.859.562 1.473 0 .625-.185 1.103-.555 1.434-.37.33-.906.496-1.609.496zm9.945 5.969c1.287 0 2.317-.353 3.09-1.06.774-.705 1.16-1.662 1.16-2.87v-7.602h-1.968v7.547c0 1.604-.76 2.406-2.282 2.406-.75 0-1.317-.2-1.703-.601-.385-.401-.578-.982-.578-1.742v-7.61H364.7v7.594c0 1.234.383 2.2 1.149 2.895.765.695 1.8 1.043 3.101 1.043zm10.235 0c1.244 0 2.23-.28 2.957-.84.726-.56 1.09-1.314 1.09-2.262 0-.583-.125-1.092-.375-1.527-.25-.435-.644-.82-1.18-1.157-.537-.336-1.248-.635-2.133-.898s-1.52-.534-1.906-.813c-.386-.278-.578-.626-.578-1.043 0-.494.178-.88.535-1.156.357-.276.858-.414 1.504-.414.692 0 1.225.168 1.597.504.373.336.559.8.559 1.395h1.969c0-.657-.177-1.254-.532-1.793a3.475 3.475 0 00-1.46-1.246c-.62-.292-1.326-.438-2.118-.438-1.192 0-2.162.297-2.91.89-.747.594-1.12 1.35-1.12 2.266 0 1.047.517 1.896 1.554 2.547.541.339 1.27.646 2.187.922.917.276 1.551.55 1.903.82.351.271.527.657.527 1.157 0 .458-.173.826-.52 1.105-.346.279-.863.418-1.55.418-.797 0-1.41-.177-1.836-.531-.427-.354-.64-.854-.64-1.5h-1.977c0 .713.19 1.338.574 1.875.383.536.919.957 1.61 1.262.69.304 1.446.457 2.269.457zm13.64 0c1.245 0 2.23-.28 2.957-.84.727-.56 1.09-1.314 1.09-2.262 0-.583-.125-1.092-.375-1.527-.25-.435-.643-.82-1.18-1.157-.536-.336-1.247-.635-2.132-.898-.886-.263-1.521-.534-1.907-.813-.385-.278-.578-.626-.578-1.043 0-.494.179-.88.535-1.156.357-.276.859-.414 1.504-.414.693 0 1.226.168 1.598.504.372.336.559.8.559 1.395h1.968c0-.657-.177-1.254-.53-1.793a3.475 3.475 0 00-1.462-1.246c-.62-.292-1.325-.438-2.117-.438-1.193 0-2.163.297-2.91.89-.748.594-1.121 1.35-1.121 2.266 0 1.047.518 1.896 1.554 2.547.542.339 1.271.646 2.188.922.917.276 1.55.55 1.902.82.352.271.528.657.528 1.157 0 .458-.174.826-.52 1.105-.346.279-.863.418-1.55.418-.798 0-1.41-.177-1.837-.531-.427-.354-.64-.854-.64-1.5h-1.977c0 .713.192 1.338.574 1.875.383.536.92.957 1.61 1.262.69.304 1.446.457 2.27.457zm13.219-.157v-1.578h-5.46v-3.5h4.671v-1.562h-4.672v-3.141h5.406v-1.594h-7.382v11.375h7.437zm3.586 0v-4.383h2.203l2.281 4.383h2.118v-.101l-2.555-4.742c.656-.276 1.168-.671 1.535-1.184.367-.513.55-1.15.55-1.91 0-1.115-.356-1.966-1.07-2.555-.713-.588-1.726-.883-3.039-.883h-4v11.375h1.977zm2.031-5.968h-2.031v-3.813h2.086c.687.01 1.204.182 1.55.516.347.333.52.804.52 1.414 0 .583-.187 1.043-.562 1.379-.375.336-.896.504-1.563.504zm10.805 5.968l4.094-11.375h-2.172l-2.89 8.899-2.86-8.899h-2.164l4.078 11.375h1.914zm12.812 0v-1.578h-5.46v-3.5h4.671v-1.562h-4.672v-3.141h5.407v-1.594h-7.383v11.375h7.437zm3.586 0v-4.383h2.203l2.282 4.383h2.117v-.101l-2.555-4.742c.656-.276 1.168-.671 1.535-1.184.368-.513.551-1.15.551-1.91 0-1.115-.357-1.966-1.07-2.555-.714-.588-1.727-.883-3.04-.883h-4v11.375h1.977zm2.032-5.968h-2.032v-3.813h2.086c.688.01 1.205.182 1.551.516.346.333.52.804.52 1.414 0 .583-.188 1.043-.563 1.379-.375.336-.896.504-1.562.504zm11.937 5.968v-8.07l5.07 8.07h1.977V258.14h-1.961v8.102l-5.086-8.102h-1.976v11.375h1.976zm13.758.157c.932 0 1.756-.226 2.473-.676.716-.45 1.266-1.097 1.652-1.938.385-.84.578-1.819.578-2.933v-.633c-.005-1.11-.203-2.082-.594-2.918-.39-.836-.944-1.477-1.66-1.922-.716-.445-1.538-.668-2.465-.668-.927 0-1.748.225-2.465.676-.716.45-1.27 1.1-1.664 1.949-.393.849-.59 1.828-.59 2.938v.64c.006 1.089.205 2.05.598 2.883.393.833.95 1.475 1.672 1.926.721.45 1.543.676 2.465.676zm0-1.625c-.865 0-1.54-.342-2.027-1.024-.487-.682-.73-1.648-.73-2.898v-.657c.01-1.224.256-2.17.737-2.84.482-.669 1.15-1.003 2.004-1.003.875 0 1.551.336 2.028 1.007.476.672.714 1.639.714 2.899v.594c0 1.28-.235 2.255-.707 2.922-.47.666-1.144 1-2.02 1zm9.945 1.468c1.026 0 1.936-.221 2.73-.664a4.526 4.526 0 001.837-1.89c.43-.818.644-1.766.644-2.844v-.57c0-1.063-.213-2.006-.64-2.829a4.581 4.581 0 00-1.81-1.906c-.778-.448-1.67-.672-2.675-.672h-3.36v11.375h3.274zm-.008-1.578h-1.289v-8.203h1.383c1.021 0 1.8.326 2.336.977.537.65.805 1.593.805 2.828v.633c-.01 1.213-.293 2.144-.848 2.793-.555.648-1.35.972-2.387.972zm14.625 1.578v-1.578h-5.46v-3.5h4.671v-1.562h-4.672v-3.141h5.407v-1.594h-7.383v11.375h7.437zm5.485.157c1.245 0 2.23-.28 2.957-.84.726-.56 1.09-1.314 1.09-2.262 0-.583-.125-1.092-.375-1.527-.25-.435-.644-.82-1.18-1.157-.536-.336-1.247-.635-2.133-.898-.885-.263-1.52-.534-1.906-.813-.386-.278-.578-.626-.578-1.043 0-.494.178-.88.535-1.156.357-.276.858-.414 1.504-.414.693 0 1.225.168 1.597.504.373.336.56.8.56 1.395h1.968c0-.657-.177-1.254-.531-1.793a3.475 3.475 0 00-1.461-1.246c-.62-.292-1.326-.438-2.118-.438-1.192 0-2.162.297-2.91.89-.747.594-1.12 1.35-1.12 2.266 0 1.047.517 1.896 1.554 2.547.542.339 1.27.646 2.187.922.917.276 1.551.55 1.903.82.351.271.527.657.527 1.157 0 .458-.173.826-.52 1.105-.346.279-.863.418-1.55.418-.797 0-1.41-.177-1.836-.531-.427-.354-.64-.854-.64-1.5h-1.977c0 .713.191 1.338.574 1.875.383.536.92.957 1.61 1.262.69.304 1.446.457 2.269.457z" fill="#0F2535" fill-rule="nonzero"/><g fill="#0F2535"><path d="M429.063 107.638h-55.515a2.127 2.127 0 01-2.129-2.124c0-1.174.954-2.126 2.129-2.126h55.515a2.126 2.126 0 110 4.25m0 12.992h-55.515a2.126 2.126 0 110-4.25h55.515a2.126 2.126 0 110 4.25m-27.757 90.836c-6.362 0-11.538-5.168-11.538-11.52 0-6.352 5.176-11.521 11.538-11.521s11.537 5.169 11.537 11.521c0 6.352-5.175 11.52-11.537 11.52m35.262-119.925h-70.524a5.54 5.54 0 00-5.545 5.536v132.011a5.54 5.54 0 005.545 5.536h70.524a5.542 5.542 0 005.545-5.536V97.077a5.542 5.542 0 00-5.545-5.536"/><path d="M401.306 192.91c-3.886 0-7.046 3.156-7.046 7.036 0 3.88 3.16 7.036 7.046 7.036 3.885 0 7.046-3.155 7.046-7.036 0-3.88-3.161-7.037-7.046-7.037M343.957 198.69c-5.07 0-9.195-4.118-9.195-9.18 0-5.063 4.125-9.182 9.195-9.182s9.193 4.12 9.193 9.181c0 5.063-4.123 9.181-9.193 9.181zm12.002-72.388h-34.122a1.694 1.694 0 110-3.387h34.122v-6.965h-34.122a1.695 1.695 0 110-3.388h34.122v-9.44h-40.102a4.414 4.414 0 00-4.418 4.411v105.2a4.414 4.414 0 004.418 4.411h40.102v-90.842z"/><path d="M343.957 183.902c-3.098 0-5.616 2.516-5.616 5.607 0 3.093 2.518 5.608 5.616 5.608 3.096 0 5.615-2.515 5.615-5.608 0-3.091-2.519-5.607-5.615-5.607M458.203 198.69c5.006 0 9.075-4.118 9.075-9.18 0-5.063-4.07-9.18-9.075-9.18-5.005 0-9.077 4.117-9.077 9.18 0 5.062 4.072 9.18 9.077 9.18zm-11.85-72.388h33.687c.921 0 1.671-.757 1.671-1.693s-.75-1.694-1.671-1.694h-33.687v-6.965h33.687c.921 0 1.671-.758 1.671-1.694 0-.935-.75-1.693-1.671-1.693h-33.687v-9.441h39.587c2.41 0 4.363 1.974 4.363 4.411v105.2c0 2.437-1.953 4.412-4.363 4.412h-39.587v-90.843z"/><path d="M458.203 183.902c3.056 0 5.542 2.515 5.542 5.607s-2.486 5.609-5.542 5.609c-3.058 0-5.543-2.517-5.543-5.609s2.485-5.607 5.543-5.607"/></g><path d="M386.261 165.324c2.58-1.57 5.613-4.266 4.462-7.44-.627-1.731-1.494-3.213-1.611-5.084-.098-1.58.152-3.175.734-4.657 2.314-5.877 9.194-8.658 15.415-6.89 5.758 1.634 9.72 7.96 7.335 13.47-1.378 3.182-1.996 5.638 1.079 8.112.832.67 2.853 1.675 2.847 2.864-.01 1.559-3.24-.332-3.601-.602.41.68 4.485 4.696 1.891 4.982-2.385.265-4.495-2.889-5.928-4.241-2.408-2.275-1.989 2.757-2.002 3.796-.016 1.64-1.241 4.963-3.441 2.8-1.817-1.786-1.131-4.638-2.392-6.624-1.388-2.18-3.69 2.17-4.264 2.966-.644.888-3.858 5.194-5.135 2.902-1.037-1.86.62-4.78 1.436-6.464-.299.611-2.405 1.515-3.022 1.81-1.391.664-2.805 1.057-4.368.953-3.237-.221-.754-1.847.565-2.653.442-.267-.412.256 0 0zM447.001 162.162c1.691-1.083 3.678-2.942 2.924-5.132-.411-1.193-.98-2.215-1.056-3.506-.064-1.09.1-2.19.48-3.211 1.517-4.053 6.025-5.972 10.1-4.753 3.773 1.128 6.369 5.49 4.806 9.29-.903 2.195-1.308 3.888.707 5.595.545.462 1.87 1.155 1.865 1.975-.006 1.075-2.123-.229-2.36-.415.27.468 2.94 3.239 1.24 3.436-1.563.182-2.945-1.993-3.884-2.925-1.578-1.569-1.303 1.901-1.311 2.618-.011 1.132-.814 3.423-2.255 1.93-1.19-1.23-.741-3.198-1.567-4.567-.91-1.503-2.417 1.496-2.794 2.045-.422.613-2.528 3.583-3.364 2.001-.68-1.282.406-3.296.94-4.458-.195.422-1.575 1.046-1.98 1.249-.91.458-1.837.73-2.861.657-2.121-.153-.494-1.274.37-1.83.29-.184-.27.177 0 0zM335.212 162.162c1.69-1.083 3.677-2.942 2.923-5.132-.41-1.193-.98-2.215-1.056-3.506-.064-1.09.1-2.19.481-3.211 1.516-4.053 6.024-5.972 10.1-4.753 3.772 1.128 6.368 5.49 4.805 9.29-.903 2.195-1.307 3.888.707 5.595.545.462 1.87 1.155 1.865 1.975-.006 1.075-2.123-.229-2.359-.415.268.468 2.938 3.239 1.24 3.436-1.564.182-2.946-1.993-3.885-2.925-1.577-1.569-1.303 1.901-1.311 2.618-.01 1.132-.814 3.423-2.255 1.93-1.19-1.23-.741-3.198-1.567-4.567-.91-1.503-2.417 1.496-2.794 2.045-.421.613-2.527 3.583-3.364 2.001-.68-1.282.407-3.296.941-4.458-.196.422-1.576 1.046-1.98 1.249-.912.458-1.838.73-2.862.657-2.12-.153-.494-1.274.37-1.83.29-.184-.27.177 0 0z" fill="#0D80D8" fill-rule="nonzero"/><g fill-rule="nonzero"><path d="M688.398 154.377c1.026 0 1.936-.221 2.73-.664a4.526 4.526 0 001.836-1.89c.43-.818.645-1.766.645-2.844v-.57c0-1.063-.214-2.006-.64-2.828a4.581 4.581 0 00-1.81-1.907c-.778-.448-1.67-.672-2.675-.672h-3.36v11.375h3.274zm-.008-1.578h-1.29v-8.203h1.384c1.02 0 1.8.326 2.336.977.536.65.804 1.593.804 2.828v.633c-.01 1.213-.293 2.144-.847 2.793-.555.648-1.35.972-2.387.972zm8.062 1.578l.922-2.648h4.407l.93 2.648h2.062l-4.305-11.375h-1.773l-4.297 11.375h2.054zm4.774-4.242h-3.297l1.648-4.719 1.649 4.72zm8.57 4.242v-9.78h3.547v-1.595h-9.023v1.594h3.515v9.781h1.961zm5.14 0l.923-2.648h4.406l.93 2.648h2.062l-4.305-11.375h-1.773l-4.297 11.375h2.055zm4.774-4.242h-3.297l1.649-4.719 1.648 4.72zm8.985 4.242c1.276 0 2.256-.286 2.941-.859s1.027-1.393 1.027-2.46c0-.647-.168-1.2-.504-1.661-.335-.461-.81-.775-1.425-.941.541-.23.953-.553 1.234-.97.281-.416.422-.885.422-1.405 0-1.021-.336-1.79-1.008-2.305-.672-.516-1.65-.774-2.937-.774h-3.899v11.375h4.149zm-.235-6.586h-1.937v-3.195h1.922c.677 0 1.175.125 1.496.375.32.25.48.656.48 1.219 0 .51-.173.905-.52 1.183-.346.28-.826.418-1.44.418zm.258 5.008h-2.195v-3.554h2.36c1.207.026 1.812.63 1.812 1.812 0 .547-.175.974-.524 1.281-.349.308-.833.461-1.453.461zm6.961 1.578l.922-2.648h4.406l.93 2.648h2.062l-4.304-11.375h-1.774l-4.297 11.375h2.055zm4.773-4.242h-3.296l1.648-4.719 1.648 4.72zm8.711 4.399c1.245 0 2.23-.28 2.957-.84.727-.56 1.09-1.314 1.09-2.262 0-.583-.125-1.092-.375-1.527-.25-.435-.643-.82-1.18-1.157-.536-.335-1.247-.635-2.132-.898-.886-.263-1.521-.534-1.907-.812-.385-.28-.578-.627-.578-1.043 0-.495.179-.88.536-1.157.356-.276.858-.414 1.503-.414.693 0 1.226.168 1.598.504.372.336.559.801.559 1.395h1.968c0-.657-.177-1.254-.53-1.793a3.475 3.475 0 00-1.462-1.246c-.62-.292-1.325-.438-2.117-.438-1.193 0-2.163.297-2.91.89-.748.595-1.121 1.35-1.121 2.266 0 1.047.518 1.896 1.554 2.547.542.339 1.271.646 2.188.922.917.276 1.55.55 1.902.82.352.271.528.657.528 1.157 0 .458-.174.827-.52 1.105-.346.279-.863.418-1.55.418-.798 0-1.41-.177-1.837-.531-.427-.354-.64-.854-.64-1.5h-1.977c0 .713.192 1.338.574 1.875.383.536.92.957 1.61 1.262.69.304 1.446.457 2.27.457zm13.22-.157V152.8h-5.462v-3.5h4.672v-1.562h-4.672v-3.14h5.406v-1.595h-7.382v11.375h7.437z" fill="#0F2535"/><path d="M766.484 34.207v7.1c0 7.824-19.28 14.207-43.042 14.207-23.763 0-43.036-6.377-43.036-14.207v-7.1c0-7.824 19.28-14.207 43.042-14.207s43.036 6.383 43.036 14.207zm0 19.007v9.406c0 7.824-19.28 14.207-43.042 14.207-23.763 0-43.036-6.37-43.036-14.207v-9.436c9.243 6.438 26.17 9.436 43.036 9.436 16.865 0 33.792-2.998 43.042-9.436v.03zm0 21.314v9.418c0 7.823-19.28 14.206-43.042 14.206-23.763 0-43.036-6.395-43.036-14.206v-9.45c9.243 6.439 26.17 9.45 43.036 9.45 16.865 0 33.792-3.011 43.042-9.45v.032zm0 21.313v9.436c0 7.824-19.28 14.207-43.042 14.207-23.763 0-43.036-6.414-43.036-14.238V95.81c9.25 6.438 26.17 9.436 43.042 9.436 16.871 0 33.786-2.998 43.036-9.436v.03z" fill="#1B2E3F"/></g><g><path d="M660.675 331.011c1.245 0 2.23-.28 2.957-.84.727-.56 1.09-1.314 1.09-2.262 0-.583-.125-1.092-.375-1.527-.25-.435-.643-.82-1.18-1.156-.536-.336-1.247-.636-2.132-.899-.886-.263-1.521-.533-1.907-.812-.385-.279-.578-.626-.578-1.043 0-.495.179-.88.535-1.156.357-.276.858-.414 1.504-.414.693 0 1.226.168 1.598.504.372.335.559.8.559 1.394h1.968c0-.656-.177-1.254-.53-1.793a3.475 3.475 0 00-1.462-1.246c-.62-.292-1.325-.438-2.117-.438-1.193 0-2.163.297-2.91.891-.748.594-1.121 1.35-1.121 2.266 0 1.047.518 1.896 1.554 2.547.542.338 1.271.645 2.188.921.917.277 1.55.55 1.902.82.352.272.528.657.528 1.157 0 .458-.174.827-.52 1.106-.346.278-.863.417-1.55.417-.798 0-1.41-.177-1.837-.53-.427-.355-.64-.855-.64-1.5h-1.977c0 .713.192 1.338.574 1.874.383.537.92.957 1.61 1.262.69.305 1.446.457 2.27.457zm7.758-.156V325.8h5.086v5.055h1.969V319.48h-1.969v4.734h-5.086v-4.734h-1.977v11.375h1.977zm10.57 0l.922-2.649h4.406l.93 2.649h2.063l-4.305-11.375h-1.773l-4.297 11.375h2.054zm4.774-4.242h-3.297l1.648-4.72 1.649 4.72zm6.812 4.242v-4.383h2.203l2.282 4.383h2.117v-.102l-2.555-4.742c.656-.276 1.168-.67 1.535-1.184.368-.513.551-1.15.551-1.91 0-1.114-.357-1.966-1.07-2.554-.714-.589-1.727-.883-3.04-.883h-4v11.375h1.977zm2.032-5.969h-2.032v-3.813h2.086c.688.01 1.205.183 1.551.516.346.333.52.805.52 1.414 0 .584-.188 1.043-.563 1.38-.375.335-.896.503-1.562.503zm13.414 5.969v-1.578h-5.461v-3.5h4.672v-1.563h-4.672v-3.14h5.406v-1.594h-7.383v11.375h7.438zm4.882 0c1.026 0 1.937-.222 2.73-.664a4.526 4.526 0 001.837-1.89c.43-.819.644-1.767.644-2.845v-.57c0-1.063-.213-2.005-.64-2.828a4.581 4.581 0 00-1.809-1.906c-.778-.448-1.67-.672-2.676-.672h-3.359v11.375h3.273zm-.007-1.578h-1.29v-8.204h1.383c1.021 0 1.8.326 2.336.977.537.651.805 1.594.805 2.828v.633c-.01 1.214-.293 2.145-.848 2.793-.554.648-1.35.973-2.386.973zm15.046 1.734c1.245 0 2.231-.28 2.958-.84.726-.56 1.09-1.314 1.09-2.262 0-.583-.126-1.092-.376-1.527-.25-.435-.643-.82-1.18-1.156-.536-.336-1.247-.636-2.132-.899-.886-.263-1.521-.533-1.906-.812-.386-.279-.579-.626-.579-1.043 0-.495.179-.88.536-1.156.356-.276.858-.414 1.504-.414.692 0 1.225.168 1.597.504.373.335.559.8.559 1.394h1.969c0-.656-.178-1.254-.532-1.793a3.475 3.475 0 00-1.46-1.246c-.62-.292-1.326-.438-2.118-.438-1.193 0-2.163.297-2.91.891-.747.594-1.121 1.35-1.121 2.266 0 1.047.518 1.896 1.555 2.547.541.338 1.27.645 2.187.921.917.277 1.55.55 1.902.82.352.272.528.657.528 1.157 0 .458-.173.827-.52 1.106-.346.278-.863.417-1.55.417-.797 0-1.41-.177-1.836-.53-.428-.355-.641-.855-.641-1.5h-1.977c0 .713.192 1.338.575 1.874.382.537.919.957 1.609 1.262.69.305 1.447.457 2.27.457zm10.454-.156v-9.782h3.546v-1.593h-9.023v1.593h3.516v9.782h1.96zm9.195.156c.932 0 1.756-.225 2.473-.676.716-.45 1.267-1.096 1.652-1.937s.578-1.82.578-2.934v-.633c-.005-1.11-.203-2.082-.594-2.918-.39-.836-.944-1.476-1.66-1.922-.716-.445-1.538-.668-2.465-.668-.927 0-1.748.226-2.465.676-.716.45-1.27 1.1-1.664 1.95-.393.848-.59 1.828-.59 2.937v.64c.006 1.09.205 2.05.598 2.883.393.834.95 1.476 1.672 1.926.721.45 1.543.676 2.465.676zm0-1.625c-.865 0-1.54-.341-2.027-1.023-.487-.683-.73-1.649-.73-2.899v-.656c.01-1.224.256-2.17.737-2.84.482-.67 1.15-1.004 2.004-1.004.875 0 1.551.336 2.028 1.008.476.672.715 1.638.715 2.898v.594c0 1.281-.236 2.255-.708 2.922-.47.667-1.144 1-2.02 1zm8.648 1.469v-4.383h2.203l2.282 4.383h2.117v-.102l-2.555-4.742c.657-.276 1.168-.67 1.535-1.184.368-.513.551-1.15.551-1.91 0-1.114-.357-1.966-1.07-2.554-.714-.589-1.727-.883-3.04-.883h-4v11.375h1.977zm2.032-5.969h-2.032v-3.813h2.086c.688.01 1.205.183 1.551.516.346.333.52.805.52 1.414 0 .584-.188 1.043-.563 1.38-.375.335-.896.503-1.562.503zm7.015 5.969l.922-2.649h4.406l.93 2.649h2.063l-4.305-11.375h-1.774l-4.296 11.375h2.054zm4.774-4.242h-3.297l1.648-4.72 1.649 4.72zm9.195 4.398c.927 0 1.755-.138 2.484-.414.73-.276 1.3-.682 1.711-1.219v-4.36h-4.312v1.5h2.344v2.227c-.428.459-1.146.688-2.157.688-.922 0-1.642-.34-2.16-1.02-.518-.68-.777-1.634-.777-2.863v-.875c.015-1.234.254-2.17.715-2.809.46-.638 1.134-.957 2.02-.957 1.369 0 2.163.685 2.382 2.055h1.938c-.152-1.177-.6-2.078-1.344-2.703-.745-.625-1.75-.938-3.016-.938-1.474 0-2.622.484-3.445 1.45s-1.235 2.308-1.235 4.027v.89c.016 1.074.223 2.012.622 2.817.398.805.964 1.423 1.699 1.856.734.432 1.578.648 2.531.648zm13.805-.156v-1.578h-5.461v-3.5h4.672v-1.563h-4.672v-3.14h5.406v-1.594h-7.383v11.375h7.438z" fill="#0F2535" fill-rule="nonzero"/><g transform="translate(661.018 196.536)"><mask id="b" fill="#fff"><use xlink:href="#a"/></mask><path d="M100.838 19.572c-1.243 0-2.464.116-3.663.282C92.387 8.219 80.76 0 67.17 0 55.938 0 46.05 5.61 40.249 14.12a20.8 20.8 0 00-2.97-.234c-10.593 0-19.281 7.937-20.222 18.071C7.394 33.486 0 41.674 0 51.577c0 10.99 9.093 19.895 20.315 19.895l5.523.004.45-28.224c1.919-2.895 6.01-5.189 12.233-6.854 6.785-1.814 15.724-2.815 25.167-2.815 9.442 0 18.38 1 25.167 2.815 6.22 1.665 10.312 3.96 12.231 6.854l.452 28.256c13.955-.769 25.836-12.087 25.836-25.944 0-14.351-11.873-25.992-26.536-25.992" fill="#1B2E3F" mask="url(#b)"/></g><path d="M733.009 290.105c0-1.099-.877-1.99-1.956-1.99-1.082 0-1.957.891-1.957 1.99 0 1.098.875 1.99 1.957 1.99 1.08 0 1.956-.892 1.956-1.99m-7.463 0c0-1.099-.878-1.99-1.958-1.99s-1.956.891-1.956 1.99c0 1.098.876 1.99 1.956 1.99s1.958-.892 1.958-1.99m-7.465 0c0-1.099-.876-1.99-1.956-1.99-1.081 0-1.958.891-1.958 1.99 0 1.098.877 1.99 1.958 1.99 1.08 0 1.956-.892 1.956-1.99m39.027-12.736v9.301c0 5.142-15.007 9.308-33.52 9.308-18.513 0-33.52-4.166-33.52-9.308v-9.3c1.971 1.632 5.009 3.024 9.103 4.161 6.557 1.821 15.229 2.824 24.417 2.824 9.188 0 17.86-1.003 24.417-2.824 4.094-1.137 7.132-2.529 9.103-4.162m-24.1-1.272c0-1.098-.876-1.989-1.955-1.989-1.082 0-1.957.891-1.957 1.99 0 1.098.875 1.99 1.957 1.99 1.08 0 1.956-.892 1.956-1.99m-7.463 0c0-1.099-.878-1.99-1.958-1.99s-1.956.891-1.956 1.99c0 1.098.876 1.99 1.956 1.99s1.958-.892 1.958-1.99m-7.465 0c0-1.099-.876-1.99-1.956-1.99-1.081 0-1.958.891-1.958 1.99 0 1.098.877 1.99 1.958 1.99 1.08 0 1.956-.892 1.956-1.99m39.027-12.956v9.3c0 5.142-15.007 9.31-33.52 9.31-18.513 0-33.52-4.168-33.52-9.31v-9.3c1.971 1.634 5.009 3.026 9.103 4.163 6.557 1.821 15.229 2.824 24.417 2.824 9.188 0 17.86-1.003 24.417-2.824 4.094-1.137 7.132-2.529 9.103-4.163m-24.1-1.052c0-1.098-.876-1.99-1.955-1.99-1.082 0-1.957.892-1.957 1.99 0 1.1.875 1.991 1.957 1.991 1.08 0 1.956-.891 1.956-1.99m-7.463 0c0-1.099-.878-1.99-1.958-1.99s-1.956.891-1.956 1.99.876 1.99 1.956 1.99 1.958-.891 1.958-1.99m-7.465 0c0-1.099-.876-1.99-1.956-1.99-1.081 0-1.958.891-1.958 1.99s.877 1.99 1.958 1.99c1.08 0 1.956-.891 1.956-1.99m39.027-13.176v9.3c0 5.142-15.007 9.309-33.52 9.309-18.513 0-33.52-4.167-33.52-9.31v-9.299c1.971 1.634 5.009 3.025 9.103 4.162 6.557 1.822 15.229 2.824 24.417 2.824 9.188 0 17.86-1.002 24.417-2.824 4.094-1.137 7.132-2.528 9.103-4.162m0-5.082c0 5.14-15.007 9.309-33.52 9.309-18.513 0-33.52-4.169-33.52-9.31 0-5.14 15.007-9.307 33.52-9.307 18.513 0 33.52 4.167 33.52 9.308" fill="#1B2E3F"/></g><g stroke="#0F2535" stroke-linecap="round" stroke-linejoin="round" stroke-width="2.235"><path d="M155.55 160.224h126.58M277.217 154.637l6.704 5.622-6.704 5.551M216.682 159.81l9.141-7.826a86.576 86.576 0 0156.306-20.81h0"/><path d="M277.217 125.587l6.704 5.621-6.704 5.552"/><g><path d="M216.682 160.223l9.141 7.827a86.576 86.576 0 0056.306 20.81h0"/><path d="M277.217 194.447l6.704-5.622-6.704-5.551"/></g></g><g stroke="#0F2535" stroke-linecap="round" stroke-linejoin="round" stroke-width="2.235"><path d="M511.974 160.224l60.773-.56"/></g><g stroke="#0F2535" stroke-linecap="round" stroke-linejoin="round" stroke-width="2.235"><path d="M573.107 160.223c.69 66.48 65.447 84.503 65.447 84.503M632.005 248.917l8.169-3.133-4.531-7.431"/></g><g stroke="#0F2535" stroke-linecap="round" stroke-linejoin="round" stroke-width="2.235"><path d="M573.107 159.48c.69-66.48 65.447-84.503 65.447-84.503M632.005 70.786l8.169 3.133-4.531 7.431"/></g></g></svg>